<?xml version="1.0" encoding="utf-8"?>
<!-- Generator: Adobe Illustrator 16.0.0, SVG Export Plug-In . SVG Version: 6.00 Build 0)  -->
<!DOCTYPE svg PUBLIC "-//W3C//DTD SVG 1.1//EN" "http://www.w3.org/Graphics/SVG/1.1/DTD/svg11.dtd">
<svg version="1.1" id="Calque_1" xmlns="http://www.w3.org/2000/svg" xmlns:xlink="http://www.w3.org/1999/xlink" x="0px" y="0px"
	 width="280px" height="200px" viewBox="0 0 280 200" enable-background="new 0 0 280 200" xml:space="preserve">
<rect fill="#FFFFFF" width="280" height="200"/>
<g>
	<path fill="#FF725E" d="M47.881,82.065c1.685,0.982,3.998,1.474,6.94,1.474c2.941,0,5.437-0.408,7.484-1.225V72.132l-8.437-0.611
		V61.103h21.969v29.532c-1.09,0-2.372,0.253-3.85,0.761s-2.742,0.932-3.791,1.271c-1.05,0.338-2.263,0.651-3.635,0.937
		c-3.086,0.651-6.723,0.977-10.908,0.977c-4.187,0-8.068-0.667-11.646-2.003c-3.576-1.334-6.622-3.259-9.137-5.775
		c-5.237-5.289-7.855-12.567-7.855-21.834c0-13.53,5.043-22.605,15.127-27.227c4.381-2.002,9.553-3.003,15.515-3.003
		c4.769,0,9.317,0.544,13.648,1.633c1.114,0.26,2.229,0.492,3.344,0.699l-0.39,12.319c-4.147-2.042-9.487-3.064-16.02-3.064
		c-5.107,0-9.073,1.558-11.898,4.671c-2.799,3.114-4.199,7.427-4.199,12.94c0,5.845,1.166,10.516,3.499,14.011
		C44.782,79.71,46.194,81.082,47.881,82.065z"/>
	<path fill="#FF725E" d="M99.635,92.617c-10.447-4.21-15.671-13.632-15.671-28.265c0-4.903,0.745-9.274,2.237-13.112
		c1.489-3.838,3.479-6.952,5.968-9.339c5.055-4.775,12.119-7.162,21.191-7.162c7.933,0,14.193,2.593,18.782,7.778
		c4.588,5.187,6.882,12.259,6.882,21.219c0,10.397-2.645,18.24-7.932,23.528c-4.874,4.878-11.705,7.316-20.493,7.316
		C106.53,94.581,102.876,93.927,99.635,92.617z M111.572,83.733c8.14,0,12.209-6.522,12.209-19.569
		c0-8.705-2.151-14.373-6.454-17.002c-1.452-0.868-3.118-1.302-4.996-1.302c-1.88,0-3.61,0.313-5.191,0.938
		c-1.582,0.626-2.955,1.679-4.122,3.16c-2.54,3.217-3.811,8.157-3.811,14.82c0,8.885,2.307,14.731,6.922,17.539
		C107.684,83.26,109.498,83.733,111.572,83.733z"/>
	<path fill="#FF725E" d="M97.69,168.83c-10.447-4.211-15.671-13.632-15.671-28.265c0-4.903,0.745-9.274,2.236-13.112
		s3.48-6.951,5.969-9.339c5.055-4.775,12.118-7.162,21.191-7.162c7.933,0,14.193,2.593,18.78,7.778
		c4.59,5.186,6.884,12.259,6.884,21.219c0,10.397-2.645,18.24-7.932,23.528c-4.874,4.878-11.705,7.316-20.492,7.316
		C104.585,170.794,100.93,170.141,97.69,168.83z M109.629,159.946c8.139,0,12.208-6.522,12.208-19.569
		c0-8.705-2.151-14.373-6.454-17.002c-1.451-0.868-3.117-1.303-4.996-1.303c-1.881,0-3.61,0.313-5.191,0.938
		c-1.581,0.626-2.955,1.679-4.121,3.159c-2.541,3.217-3.812,8.157-3.812,14.82c0,8.885,2.308,14.73,6.922,17.538
		C105.739,159.474,107.554,159.946,109.629,159.946z"/>
	<path fill="#00C4D6" d="M225.276,170.755h-72.604h-5.21v-59.803h5.443h73.031c14.621,0,23.721,5.465,27.297,16.394
		c1.167,3.541,1.751,7.685,1.751,12.43c0,4.747-0.675,9.069-2.022,12.97c-2.697,7.825-7.791,13.136-15.282,15.933
		C234.05,170.062,229.916,170.755,225.276,170.755z M225.704,121.334c-2.178,0-61.172-0.337-63.35,0v38.806
		c1.4,0.39,60.213,0,62.806,0c2.591,0,4.729-0.388,6.415-1.167c1.685-0.777,3.124-1.955,4.316-3.537
		c2.462-3.318,3.694-8.231,3.694-14.738c0-6.998-1.181-12.014-3.539-15.048C233.844,122.772,230.396,121.334,225.704,121.334z"/>
</g>
</svg>
