<?xml version="1.0" encoding="utf-8"?>
<!-- Generator: Adobe Illustrator 16.0.0, SVG Export Plug-In . SVG Version: 6.00 Build 0)  -->
<!DOCTYPE svg PUBLIC "-//W3C//DTD SVG 1.1//EN" "http://www.w3.org/Graphics/SVG/1.1/DTD/svg11.dtd">
<svg version="1.1" id="Calque_1" xmlns="http://www.w3.org/2000/svg" xmlns:xlink="http://www.w3.org/1999/xlink" x="0px" y="0px"
	 width="280px" height="200px" viewBox="0 0 280 200" enable-background="new 0 0 280 200" xml:space="preserve">
<rect fill="#FFFFFF" width="280" height="200"/>
<g>
	<g enable-background="new    ">
		<path fill="#FF725E" d="M29.108,125.396c0-3.055,1.103-5.752,3.309-8.094c2.206-2.308,4.903-3.462,8.094-3.462
			c3.156,0,5.701,1.019,7.636,3.055c1.832,1.969,2.749,4.514,2.749,7.636c0,3.155-1.069,5.871-3.207,8.145
			c-2.206,2.308-4.887,3.461-8.042,3.461c-3.123,0-5.65-1.018-7.585-3.054C30.092,130.979,29.108,128.417,29.108,125.396z"/>
		<path fill="#FF725E" d="M64.333,118.532c2.171,1.775,5.989,3.238,11.453,4.389c1.866,0.395,4.055,0.592,6.566,0.592
			c5.022,0,7.534-1.384,7.534-4.151c0-2.035-2.427-3.936-7.279-5.703c-1.562-0.566-3.504-1.225-5.829-1.976
			c-2.325-0.75-4.438-1.708-6.337-2.876c-1.901-1.168-3.445-2.484-4.632-3.952c-2.308-2.835-3.461-6.503-3.461-11.006
			c0-5.302,2.375-9.437,7.126-12.405c4.377-2.801,10.044-4.201,17.001-4.201c8.145,0,14.372,1.188,18.682,3.562l-1.68,13.367
			c-2.24-1.852-5.498-3.215-9.773-4.089c-1.425-0.314-3.292-0.472-5.6-0.472c-4.955,0-7.466,1.301-7.533,3.902
			c0,1.468,0.848,2.718,2.545,3.752c1.561,0.934,4.182,1.977,7.865,3.127c3.682,1.15,6.523,2.252,8.526,3.302
			c2.002,1.05,3.665,2.276,4.989,3.677c2.68,2.735,4.021,6.271,4.021,10.606c0,5.869-2.223,10.372-6.668,13.507
			c-4.344,3.102-10.282,4.652-17.816,4.652c-6.719,0-12.76-1.034-18.121-3.105c-1.46-0.576-2.596-1.119-3.411-1.629L64.333,118.532z
			"/>
		<path fill="#FF725E" d="M111.979,77.242h20.208l7.483,25.299l3.666,14.812l3.41-14.812l7.229-25.299h19.75l-21.736,58.844h-18.019
			L111.979,77.242z"/>
		<path fill="#FF725E" d="M199.736,113.79c-1.222,1.227-1.832,2.701-1.832,4.426s0.542,2.902,1.629,3.534
			c1.085,0.633,3.003,0.948,5.752,0.948h11.504c8.381,0,14.473,1.737,18.273,5.21c3.123,2.877,4.684,6.863,4.684,11.956
			c0,7.079-3.428,12.636-10.282,16.671c-6.108,3.572-13.473,5.358-22.093,5.358c-15.339,0-24.908-3.344-28.709-10.029
			c-1.188-2.065-1.781-4.353-1.781-6.859c0-2.508,0.729-4.811,2.189-6.907c1.458-2.098,3.63-3.77,6.516-5.015
			c-3.123-1.817-4.684-4.773-4.684-8.869c0-3.812,1.662-7.124,4.988-9.938c1.188-0.997,2.68-1.905,4.479-2.725
			c-7.737-3.086-11.606-8.317-11.606-15.696c0-9.256,5.124-15.074,15.373-17.455c3.326-0.771,7.127-1.157,11.402-1.157
			c8.45,0,14.999,1.425,19.648,4.275c2.816-2.851,6.109-4.275,9.875-4.275h6.516v13.743h-9.365c0.373,1.534,0.56,3.419,0.56,5.653
			s-0.534,4.485-1.604,6.753s-2.706,4.186-4.912,5.752c-4.581,3.302-11.487,4.952-20.718,4.952
			C203.504,114.096,201.568,113.994,199.736,113.79z M197.598,136.086c-1.188,1.593-1.781,3.425-1.781,5.496
			c0,4.588,1.986,7.661,5.956,9.223c1.526,0.605,3.376,0.908,5.548,0.908s4.072-0.144,5.701-0.43
			c1.629-0.287,3.037-0.749,4.226-1.386c2.511-1.402,3.767-3.489,3.767-6.261c0-2.485-0.526-4.158-1.578-5.018
			c-2.002-1.689-5.158-2.533-9.468-2.533H197.598z M211.648,102.878c1.967-1.591,2.951-3.962,2.951-7.111
			c0-5.868-2.9-8.803-8.704-8.803c-4.411,0-7.212,1.509-8.399,4.526c-0.441,1.128-0.661,2.785-0.661,4.973
			c0,2.188,0.729,4.028,2.188,5.521s3.656,2.237,6.592,2.237S210.561,103.773,211.648,102.878z"/>
	</g>
</g>
</svg>
