<?xml version="1.0" encoding="utf-8"?>
<!-- Generator: Adobe Illustrator 16.0.0, SVG Export Plug-In . SVG Version: 6.00 Build 0)  -->
<!DOCTYPE svg PUBLIC "-//W3C//DTD SVG 1.1//EN" "http://www.w3.org/Graphics/SVG/1.1/DTD/svg11.dtd">
<svg version="1.1" id="Calque_1" xmlns="http://www.w3.org/2000/svg" xmlns:xlink="http://www.w3.org/1999/xlink" x="0px" y="0px"
	 width="280px" height="200px" viewBox="0 0 280 200" enable-background="new 0 0 280 200" xml:space="preserve">
<rect fill="#FFFFFF" width="280" height="200"/>
<polygon fill="#C7B299" points="129.035,116.899 76.404,146.974 76.404,77.426 129.035,48.291 "/>
<polygon fill="#C7B299" points="129.035,117.839 199.523,147.914 201.402,78.365 129.035,48.291 "/>
<path fill="#4D4D4D" d="M110.613,137.223c-1.469-4.112-1.31-8.177,0.484-12.194c1.907-4.109,4.943-6.907,9.1-8.394
	c4.158-1.483,7.99-1.34,11.495,0.434c3.341,1.731,5.745,4.653,7.213,8.766c1.469,4.113,1.315,8.201-0.459,12.262
	c-1.776,4.062-4.766,6.845-8.965,8.344c-4.07,1.453-7.854,1.293-11.363-0.479C114.533,144.116,112.035,141.202,110.613,137.223z
	 M73.38,30.224l27.294-9.749l25.816,80.76l-21.055,7.519L73.38,30.224z"/>
<path fill="#00C4D6" d="M157.213,105.896c-7.079,3.085-14.728,3.32-22.947,0.707c-7.268-2.312-12.43-6.382-15.482-12.212
	c-2.966-5.803-3.35-12.162-1.147-19.087c1.389-4.369,3.778-7.766,7.17-10.187c3.39-2.426,6.892-3.812,10.504-4.164
	s6.804-0.421,9.569-0.207c2.768,0.211,5.519,0.587,8.253,1.123c4.622,0.895,9.766,2.247,15.435,4.048l1.282-4.033
	c0.929-2.923,0.678-5.128-0.755-6.616c-1.519-1.511-5.004-3.138-10.456-4.87c-4.412-1.403-10.317-2.232-17.714-2.493
	c-2.223-0.05-4.27,0.02-6.14,0.208l-0.511-15.249c6.355-1.553,14.68-1.597,24.98-0.13c3.452,0.522,7.462,1.512,12.027,2.964
	c4.563,1.45,8.724,3.312,12.479,5.584c3.754,2.273,6.557,4.923,8.406,7.946c3.532,5.671,3.702,13.527,0.509,23.57l-15.125,47.568
	l-15.055-4.788c-2.77-0.88-4.482-1.711-5.138-2.494c-1.155-1.46-1.258-3.684-0.308-6.671L157.213,105.896z M142.714,82.279
	c-0.495,1.559-0.682,3.047-0.563,4.466c0.121,1.42,0.504,2.686,1.152,3.794c1.178,2.14,3.087,3.625,5.726,4.465
	c2.813,0.896,5.649,1.035,8.513,0.422c0.76-0.141,1.366-0.327,1.823-0.565l5.529-17.391c-5.408-1.72-9.975-2.337-13.701-1.855
	C146.888,75.817,144.062,78.037,142.714,82.279z"/>
<polygon fill="#FF725E" points="201.402,148.854 148.771,178.929 148.771,109.381 201.402,78.365 "/>
<polygon fill="#FF725E" points="76.404,147.914 148.771,178.929 148.771,108.44 76.404,78.365 "/>
</svg>
