<?xml version="1.0" encoding="utf-8"?>
<!-- Generator: Adobe Illustrator 16.0.0, SVG Export Plug-In . SVG Version: 6.00 Build 0)  -->
<!DOCTYPE svg PUBLIC "-//W3C//DTD SVG 1.1//EN" "http://www.w3.org/Graphics/SVG/1.1/DTD/svg11.dtd">
<svg version="1.1" id="Calque_1" xmlns="http://www.w3.org/2000/svg" xmlns:xlink="http://www.w3.org/1999/xlink" x="0px" y="0px"
	 width="280px" height="200px" viewBox="0 0 280 200" enable-background="new 0 0 280 200" xml:space="preserve">
<rect fill="#FFFFFF" width="280" height="200"/>
<rect x="35" y="22" fill="#00C4D6" width="130" height="11"/>
<rect x="35" y="42" fill="#00C4D6" width="110" height="11"/>
<rect x="35" y="62" fill="#00C4D6" width="130" height="11"/>
<rect x="35" y="82" fill="#00C4D6" width="122" height="11"/>
<rect x="35" y="102" fill="#00C4D6" width="93" height="11"/>
<rect x="35" y="122" fill="#00C4D6" width="130" height="11"/>
<rect x="35" y="142" fill="#00C4D6" width="124" height="11"/>
<rect x="35" y="162" fill="#00C4D6" width="102" height="11"/>
<rect x="195" y="22" fill="#FF725E" width="51" height="5"/>
<rect x="195" y="31" fill="#FF725E" width="41" height="6"/>
<rect x="195" y="41" fill="#FF725E" width="51" height="5"/>
<rect x="195" y="50" fill="#FF725E" width="46" height="5"/>
<rect x="195" y="60" fill="#FF725E" width="36" height="5"/>
<rect x="195" y="69" fill="#FF725E" width="51" height="5"/>
<rect x="195" y="78" fill="#FF725E" width="48" height="6"/>
<rect x="195" y="88" fill="#FF725E" width="39" height="5"/>
</svg>
