<?xml version="1.0" encoding="utf-8"?>
<!-- Generator: Adobe Illustrator 16.0.0, SVG Export Plug-In . SVG Version: 6.00 Build 0)  -->
<!DOCTYPE svg PUBLIC "-//W3C//DTD SVG 1.1//EN" "http://www.w3.org/Graphics/SVG/1.1/DTD/svg11.dtd">
<svg version="1.1" id="Calque_1" xmlns="http://www.w3.org/2000/svg" xmlns:xlink="http://www.w3.org/1999/xlink" x="0px" y="0px"
	 width="280px" height="200px" viewBox="0 0 280 200" enable-background="new 0 0 280 200" xml:space="preserve">
<rect fill="#FFFFFF" width="280" height="200"/>
<rect x="19" y="46" fill="none" width="239" height="145"/>
<g enable-background="new    ">
	<path fill="#4D4D4D" d="M32.548,53.646l-3.633-0.557v-4.834h18.311v4.775l-3.486,0.615l6.855,27.1
		c0.156,0.84,0.317,1.665,0.483,2.476c0.166,0.811,0.337,1.626,0.513,2.446l0.967-4.922l5.566-22.441l-1.172-4.658l-3.809-0.557
		v-4.834h18.926v4.775l-4.746,0.674L73.3,80.746l1.055,5.039l1.23-5.039l6.533-27.07l-4.395-0.586v-4.834h17.139v4.834l-4.424,0.557
		L78.251,94.223h-9.99L61.552,70.58l-6.504,23.613h-9.375L32.548,53.646z"/>
	<path fill="#4D4D4D" d="M97.44,78.197c0-2.5,0.41-4.854,1.23-7.061s2.002-4.131,3.545-5.771c1.542-1.641,3.428-2.939,5.654-3.896
		s4.746-1.436,7.559-1.436c2.363,0,4.395,0.303,6.094,0.908s3.095,1.45,4.189,2.534c1.094,1.084,1.914,2.378,2.461,3.882
		c0.546,1.504,0.85,3.145,0.908,4.922c0.039,1.23,0.01,2.324-0.088,3.281c-0.098,0.957-0.205,1.846-0.322,2.666h-20.42
		c0.273,3.457,1.167,6.064,2.681,7.822c1.513,1.758,3.716,2.637,6.606,2.637c1.425,0,2.944-0.151,4.556-0.454
		s3.208-0.806,4.79-1.509l1.553,3.662c-0.743,0.625-1.646,1.201-2.71,1.729c-1.065,0.527-2.222,0.977-3.472,1.348
		c-1.25,0.371-2.574,0.659-3.97,0.864c-1.396,0.205-2.808,0.288-4.233,0.249c-2.656-0.059-5.015-0.459-7.075-1.201
		c-2.061-0.742-3.799-1.812-5.215-3.208c-1.417-1.396-2.49-3.096-3.223-5.098S97.44,80.775,97.44,78.197z M119.003,73.51
		c0.059-0.723,0.117-1.499,0.176-2.329s0.054-1.641-0.015-2.432c-0.069-0.791-0.239-1.528-0.513-2.212
		c-0.274-0.684-0.703-1.23-1.289-1.641c-0.352-0.254-0.762-0.444-1.23-0.571s-1.016-0.19-1.641-0.19
		c-1.133,0-2.08,0.278-2.842,0.835s-1.382,1.279-1.86,2.168c-0.479,0.889-0.831,1.89-1.055,3.003
		c-0.225,1.113-0.376,2.236-0.454,3.369H119.003z"/>
</g>
<g enable-background="new    ">
	<path fill="#00C4D6" d="M150.438,82.211c0.273-1.133,0.801-2.148,1.582-3.047c0.78-0.898,1.718-1.68,2.812-2.344
		c1.094-0.664,2.295-1.226,3.604-1.685c1.308-0.459,2.626-0.835,3.955-1.128c1.328-0.293,2.612-0.503,3.853-0.63
		s2.348-0.19,3.325-0.19c0-1.562-0.137-2.832-0.41-3.809c-0.274-0.977-0.679-1.743-1.216-2.3s-1.191-0.938-1.963-1.143
		s-1.655-0.308-2.651-0.308c-1.271,0-2.446,0.103-3.53,0.308s-2.051,0.444-2.9,0.718s-1.553,0.552-2.109,0.835
		s-0.942,0.503-1.157,0.659l-1.992-4.512c0.312-0.254,0.868-0.586,1.67-0.996c0.801-0.41,1.831-0.811,3.091-1.201
		s2.734-0.723,4.424-0.996s3.569-0.41,5.64-0.41c1.973,0,3.784,0.181,5.435,0.542s3.071,0.996,4.263,1.904
		c1.19,0.908,2.119,2.139,2.783,3.691c0.663,1.553,0.996,3.521,0.996,5.903V89.77h3.838v3.135c-0.509,0.352-1.079,0.635-1.714,0.85
		s-1.294,0.381-1.978,0.498c-0.685,0.117-1.362,0.2-2.036,0.249s-1.294,0.073-1.86,0.073c-0.371,0-0.85-0.039-1.436-0.117
		s-1.157-0.239-1.714-0.483s-1.04-0.586-1.45-1.025s-0.635-1.011-0.674-1.714c-1.016,0.957-2.217,1.753-3.604,2.388
		c-1.388,0.635-3.018,0.952-4.893,0.952c-2.56,0-4.692-0.347-6.401-1.04s-3.043-1.611-3.999-2.754
		c-0.957-1.143-1.558-2.461-1.802-3.955S150.047,83.793,150.438,82.211z M160.575,83.939c0,1.895,0.537,3.262,1.611,4.102
		c1.073,0.84,2.646,1.113,4.717,0.82c0.527-0.078,1.006-0.22,1.436-0.425c0.429-0.205,0.83-0.444,1.201-0.718
		c0-1.68,0.005-3.354,0.015-5.024s0.015-3.345,0.015-5.024c-0.605,0-1.25,0.034-1.934,0.103c-0.685,0.068-1.358,0.19-2.021,0.366
		c-0.664,0.176-1.3,0.42-1.904,0.732c-0.605,0.312-1.143,0.698-1.611,1.157s-0.84,1.011-1.113,1.655
		C160.711,82.328,160.575,83.08,160.575,83.939z"/>
	<path fill="#00C4D6" d="M186.796,89.77l3.604-0.732V69.76l-3.984-2.812v-3.691l10.869-3.223l2.109,0.527v5.742
		c0.253-0.977,0.722-1.855,1.406-2.637c0.684-0.781,1.445-1.44,2.285-1.978c0.839-0.537,1.688-0.947,2.549-1.23
		c0.859-0.283,1.592-0.425,2.197-0.425c0.684,0,1.318,0.029,1.904,0.088s1.006,0.146,1.26,0.264v9.258
		c-0.234-0.234-0.567-0.439-0.996-0.615c-0.43-0.176-0.884-0.322-1.362-0.439s-0.957-0.205-1.436-0.264s-0.884-0.088-1.216-0.088
		c-0.82,0-1.543,0.049-2.168,0.146c-0.626,0.098-1.147,0.21-1.567,0.337s-0.752,0.249-0.996,0.366s-0.406,0.205-0.483,0.264v19.424
		l6.826,0.996v3.984h-20.801V89.77z"/>
	<path fill="#00C4D6" d="M214.364,78.197c0-2.5,0.41-4.854,1.23-7.061s2.002-4.131,3.545-5.771c1.542-1.641,3.428-2.939,5.654-3.896
		s4.746-1.436,7.559-1.436c2.362,0,4.395,0.303,6.094,0.908s3.095,1.45,4.189,2.534c1.094,1.084,1.914,2.378,2.461,3.882
		c0.546,1.504,0.85,3.145,0.908,4.922c0.039,1.23,0.01,2.324-0.088,3.281c-0.099,0.957-0.205,1.846-0.322,2.666h-20.42
		c0.273,3.457,1.167,6.064,2.681,7.822s3.716,2.637,6.606,2.637c1.425,0,2.944-0.151,4.556-0.454s3.208-0.806,4.79-1.509
		l1.553,3.662c-0.743,0.625-1.646,1.201-2.71,1.729s-2.223,0.977-3.472,1.348c-1.25,0.371-2.573,0.659-3.97,0.864
		s-2.809,0.288-4.233,0.249c-2.656-0.059-5.015-0.459-7.075-1.201s-3.799-1.812-5.215-3.208s-2.49-3.096-3.223-5.098
		S214.364,80.775,214.364,78.197z M235.927,73.51c0.059-0.723,0.117-1.499,0.176-2.329s0.054-1.641-0.015-2.432
		s-0.239-1.528-0.513-2.212c-0.274-0.684-0.703-1.23-1.289-1.641c-0.352-0.254-0.762-0.444-1.23-0.571s-1.016-0.19-1.641-0.19
		c-1.133,0-2.08,0.278-2.842,0.835s-1.382,1.279-1.86,2.168s-0.83,1.89-1.055,3.003s-0.377,2.236-0.454,3.369H235.927z"/>
</g>
<g enable-background="new    ">
	<path fill="#FF725E" d="M51.577,144.78c-2.285,0.723-4.698,1.083-7.236,1.083c-2.539,0-4.277,0-5.215,0v12.891H27.934v-45.059
		h4.336c2.051,0,4.097,0,6.138,0c2.041,0,4.292,0,6.753,0s4.75,0.273,6.87,0.82c2.119,0.546,3.921,1.443,5.405,2.692
		c3.047,2.556,4.57,6.624,4.57,12.205C62.006,137.453,58.53,142.575,51.577,144.78z M46.889,121.532
		c-0.898-0.342-2.065-0.513-3.501-0.513s-2.856,0.18-4.263,0.54v16.097c1.66,0.159,3.095,0.238,4.307,0.238
		c1.211,0,2.266-0.155,3.164-0.467c0.898-0.312,1.68-0.819,2.344-1.522c1.425-1.486,2.139-3.746,2.139-6.779
		C51.079,125.148,49.682,122.616,46.889,121.532z"/>
	<path fill="#FF725E" d="M86.586,135.199c-3.184,0-5.713,1.142-7.588,3.425v20.13H68.129v-33.867h9.521l0.469,5.682
		c1.132-2.62,3.262-4.372,6.387-5.258c1.015-0.282,2.119-0.424,3.311-0.424c1.191,0,1.973,0,2.344,0v11.401
		C89.242,135.562,88.051,135.199,86.586,135.199z"/>
	<path fill="#FF725E" d="M105.278,144.164c0.429,4.629,3.212,6.943,8.35,6.943c2.559,0,5-0.352,7.324-1.055
		c0.684-0.215,1.23-0.43,1.641-0.645l1.67,5.771c-1.934,1.582-4.912,2.686-8.936,3.311c-1.348,0.195-3.066,0.293-5.156,0.293
		c-2.09,0-4.17-0.391-6.24-1.172c-2.07-0.78-3.809-1.903-5.215-3.369c-2.852-2.969-4.277-7.153-4.277-12.552
		c0-4.917,1.465-8.917,4.395-12.003c3.027-3.2,7.148-4.801,12.363-4.801c6.426,0,10.693,2.254,12.803,6.76
		c0.801,1.719,1.206,3.81,1.216,6.273c0.01,2.464-0.103,4.545-0.337,6.244H105.278z M115.18,138.744
		c0.019-0.403,0.029-0.789,0.029-1.156c0-1.726-0.293-3.106-0.879-4.144s-1.709-1.556-3.369-1.556c-2.422,0-4.062,1.202-4.922,3.606
		c-0.312,0.863-0.538,1.946-0.674,3.249H115.18z"/>
	<path fill="#FF725E" d="M131.909,148.651c1.25,1.021,3.447,1.863,6.592,2.525c1.074,0.228,2.333,0.341,3.779,0.341
		c2.891,0,4.336-0.797,4.336-2.39c0-1.171-1.396-2.265-4.189-3.282c-0.898-0.326-2.017-0.705-3.354-1.137
		c-1.338-0.432-2.554-0.983-3.647-1.655c-1.094-0.672-1.982-1.431-2.666-2.274c-1.329-1.632-1.992-3.743-1.992-6.334
		c0-3.052,1.367-5.432,4.102-7.141c2.52-1.612,5.781-2.418,9.785-2.418c4.688,0,8.271,0.684,10.752,2.051l-0.967,7.693
		c-1.289-1.065-3.164-1.851-5.625-2.354c-0.82-0.181-1.895-0.271-3.223-0.271c-2.852,0-4.297,0.749-4.336,2.246
		c0,0.845,0.488,1.564,1.465,2.159c0.898,0.538,2.407,1.138,4.527,1.8c2.119,0.662,3.754,1.296,4.906,1.9s2.109,1.31,2.871,2.116
		c1.543,1.574,2.314,3.608,2.314,6.104c0,3.378-1.279,5.969-3.838,7.773c-2.5,1.785-5.918,2.678-10.254,2.678
		c-3.867,0-7.343-0.596-10.429-1.787c-0.84-0.332-1.494-0.645-1.963-0.938L131.909,148.651z"/>
	<path fill="#FF725E" d="M172.807,144.164c0.43,4.629,3.213,6.943,8.35,6.943c2.559,0,5-0.352,7.324-1.055
		c0.684-0.215,1.23-0.43,1.641-0.645l1.67,5.771c-1.934,1.582-4.912,2.686-8.936,3.311c-1.348,0.195-3.066,0.293-5.156,0.293
		s-4.17-0.391-6.24-1.172c-2.07-0.78-3.809-1.903-5.215-3.369c-2.852-2.969-4.277-7.153-4.277-12.552
		c0-4.917,1.465-8.917,4.395-12.003c3.027-3.2,7.148-4.801,12.363-4.801c6.426,0,10.693,2.254,12.803,6.76
		c0.801,1.719,1.206,3.81,1.217,6.273c0.01,2.464-0.104,4.545-0.338,6.244H172.807z M182.709,138.744
		c0.02-0.403,0.029-0.789,0.029-1.156c0-1.726-0.293-3.106-0.879-4.144s-1.709-1.556-3.369-1.556c-2.422,0-4.062,1.202-4.922,3.606
		c-0.312,0.863-0.537,1.946-0.674,3.249H182.709z"/>
	<path fill="#FF725E" d="M200.785,132.006h-3.867v-5.742c2.52-0.74,4.053-1.367,4.6-1.883c0.547-0.517,0.924-0.979,1.129-1.388
		c0.205-0.408,0.399-0.842,0.586-1.3c0.186-0.457,0.381-0.934,0.586-1.431c0.205-0.496,0.41-1.002,0.615-1.519
		c0.205-0.516,0.404-0.998,0.6-1.445h6.592v7.588h8.672v7.119h-8.672v11.908c0,2.972,0.273,4.878,0.82,5.719
		c0.293,0.449,0.689,0.733,1.188,0.851s1.025,0.176,1.582,0.176s1.064-0.034,1.523-0.103c0.458-0.068,0.912-0.161,1.361-0.278
		c1.055-0.293,1.816-0.605,2.285-0.938l1.289,6.044c-1.465,1.387-3.984,2.412-7.559,3.076c-1.172,0.215-2.51,0.322-4.014,0.322
		s-2.875-0.225-4.115-0.674c-1.241-0.45-2.242-1.125-3.004-2.024c-1.465-1.721-2.197-4.448-2.197-8.183V132.006z"/>
	<path fill="#FF725E" d="M226.566,148.651c1.25,1.021,3.447,1.863,6.592,2.525c1.074,0.228,2.334,0.341,3.779,0.341
		c2.891,0,4.336-0.797,4.336-2.39c0-1.171-1.396-2.265-4.189-3.282c-0.898-0.326-2.017-0.705-3.354-1.137
		c-1.338-0.432-2.555-0.983-3.648-1.655s-1.982-1.431-2.666-2.274c-1.328-1.632-1.992-3.743-1.992-6.334
		c0-3.052,1.367-5.432,4.102-7.141c2.52-1.612,5.781-2.418,9.785-2.418c4.688,0,8.271,0.684,10.752,2.051l-0.967,7.693
		c-1.289-1.065-3.164-1.851-5.625-2.354c-0.82-0.181-1.895-0.271-3.223-0.271c-2.852,0-4.297,0.749-4.336,2.246
		c0,0.845,0.488,1.564,1.465,2.159c0.898,0.538,2.407,1.138,4.527,1.8c2.119,0.662,3.754,1.296,4.906,1.9s2.109,1.31,2.871,2.116
		c1.543,1.574,2.314,3.608,2.314,6.104c0,3.378-1.279,5.969-3.838,7.773c-2.5,1.785-5.918,2.678-10.254,2.678
		c-3.867,0-7.344-0.596-10.43-1.787c-0.84-0.332-1.494-0.645-1.963-0.938L226.566,148.651z"/>
</g>
</svg>
