<?xml version="1.0" encoding="utf-8"?>
<!-- Generator: Adobe Illustrator 16.0.0, SVG Export Plug-In . SVG Version: 6.00 Build 0)  -->
<!DOCTYPE svg PUBLIC "-//W3C//DTD SVG 1.1//EN" "http://www.w3.org/Graphics/SVG/1.1/DTD/svg11.dtd">
<svg version="1.1" id="Calque_1" xmlns="http://www.w3.org/2000/svg" xmlns:xlink="http://www.w3.org/1999/xlink" x="0px" y="0px"
	 width="280px" height="200px" viewBox="0 0 280 200" enable-background="new 0 0 280 200" xml:space="preserve">
<rect fill="#FFFFFF" width="280" height="200"/>
<g>
	<g enable-background="new    ">
		<path fill="#00C4D6" d="M74.45,130.436c-4.344,3.801-9.74,5.701-16.188,5.701c-5.701,0-10.3-1.73-13.795-5.192
			c-3.428-3.461-5.141-7.906-5.141-13.336c0-3.428,0.933-6.389,2.8-8.883c1.866-2.494,4.047-4.276,6.541-5.345
			c2.494-1.069,4.751-1.841,6.77-2.316c2.019-0.475,4.063-0.831,6.134-1.069c3.495-0.407,7.465-0.61,11.912-0.61V96.22
			c0-2.293-0.679-3.807-2.036-4.541c-1.425-0.732-4.276-1.101-8.552-1.101c-3.461,0-7.856,0.746-13.184,2.236
			c-1.595,0.467-3.038,0.979-4.327,1.538l-3.818-10.748c4.174-2.545,10.096-4.462,17.766-5.752c2.578-0.407,5.658-0.61,9.239-0.61
			c3.58,0,6.965,0.384,10.155,1.151c3.189,0.769,5.785,2.021,7.788,3.756c3.8,3.239,5.701,8.798,5.701,16.677v37.311h-11.81
			c-2.172,0-3.581-0.203-4.225-0.61c-1.154-0.78-1.73-2.342-1.73-4.684V130.436z M58.772,116.896c0,1.222,0.204,2.325,0.611,3.309
			c0.407,0.984,0.967,1.799,1.68,2.443c1.323,1.256,3.02,1.884,5.09,1.884c2.206,0,4.258-0.543,6.159-1.629
			c0.509-0.271,0.899-0.543,1.171-0.814v-13.643c-4.243,0-7.635,0.595-10.181,1.781C60.281,111.347,58.772,113.57,58.772,116.896z"
			/>
		<path fill="#00C4D6" d="M112.221,90.069h43.268v14.151h-43.268V90.069z"/>
		<path fill="#00C4D6" d="M170.25,131.755l31.814-54.754l3.41-5.054h-31.56v-14.15h55.739l2.087,4.176l-31.204,54.243l-3.767,5.413
			h33.036v14.457h-57.418L170.25,131.755z"/>
	</g>
</g>
</svg>
