<?xml version="1.0" encoding="utf-8"?>
<!-- Generator: Adobe Illustrator 16.0.0, SVG Export Plug-In . SVG Version: 6.00 Build 0)  -->
<!DOCTYPE svg PUBLIC "-//W3C//DTD SVG 1.1//EN" "http://www.w3.org/Graphics/SVG/1.1/DTD/svg11.dtd">
<svg version="1.1" id="Calque_1" xmlns="http://www.w3.org/2000/svg" xmlns:xlink="http://www.w3.org/1999/xlink" x="0px" y="0px"
	 width="280px" height="200px" viewBox="0 0 280 200" enable-background="new 0 0 280 200" xml:space="preserve">
<rect fill="#FFFFFF" width="280" height="200"/>
<g opacity="0.3">
	<g>
		<path fill="none" stroke="#00C4D6" stroke-width="5" stroke-linecap="round" stroke-linejoin="round" d="M34.001,150
			c0-1.996,0.349-3.96,1.021-5.882"/>
		
			<path fill="none" stroke="#00C4D6" stroke-width="5" stroke-linecap="round" stroke-linejoin="round" stroke-dasharray="12.0308,12.0308" d="
			M41.674,134.215c15.549-15.312,53.043-26.107,96.826-26.107c48.023,0,88.481,12.987,100.713,30.678"/>
		<path fill="none" stroke="#00C4D6" stroke-width="5" stroke-linecap="round" stroke-linejoin="round" d="M241.978,144.118
			c0.673,1.922,1.021,3.886,1.021,5.882"/>
	</g>
</g>
<path fill="none" stroke="#00C4D6" stroke-width="5" stroke-linecap="round" stroke-linejoin="round" stroke-miterlimit="10" d="
	M34.001,150c0-43.333,46.786-88.462,104.499-88.462S242.999,106.667,242.999,150"/>
<rect x="126.5" y="97.5" fill="#FF725E" width="23" height="23"/>
<rect x="126.5" y="50.5" fill="#FF725E" width="23" height="23"/>
<polygon fill="#4D4D4D" points="174.719,139.031 138.014,109.239 140.455,156.45 152.672,147.632 162.789,167.532 169.92,163.907 
	159.757,143.914 "/>
</svg>
