<?xml version="1.0" encoding="utf-8"?>
<!-- Generator: Adobe Illustrator 16.0.0, SVG Export Plug-In . SVG Version: 6.00 Build 0)  -->
<!DOCTYPE svg PUBLIC "-//W3C//DTD SVG 1.1//EN" "http://www.w3.org/Graphics/SVG/1.1/DTD/svg11.dtd">
<svg version="1.1" id="Calque_1" xmlns="http://www.w3.org/2000/svg" xmlns:xlink="http://www.w3.org/1999/xlink" x="0px" y="0px"
	 width="280px" height="200px" viewBox="0 0 280 200" enable-background="new 0 0 280 200" xml:space="preserve">
<rect fill="#FFFFFF" width="280" height="200"/>
<g transform="translate(-317.7570093457944, -80.66139468008627) scale(1.5) matrix(1 0 0 -1 0 0)">
	<g>
		<g transform="skewX(0)">
			<path fill="#FF725E" d="M239.761-136.527c0,12.406,12.506,20.645,31.364,20.645c0,6.352-4.268,10.62-10.719,10.62
				s-12.605-1.588-15.384-4.069l-1.389,4.069c2.878,2.978,11.91,5.062,22.53,5.062c14.59,0,24.317-6.253,24.317-15.682v-14.391
				c0-4.764,1.191-8.04,2.779-8.04c1.092,0,2.184,0.794,2.68,1.985l2.283-1.191c0-9.132-4.863-15.285-12.307-15.285
				c-7.444,0-12.406,4.466-12.406,11.116c-1.39-8.932-7.94-11.116-16.079-11.116C246.807-152.804,239.761-146.253,239.761-136.527z
				 M271.124-120.447c-7.245,0-12.01-6.353-12.01-15.782c0-6.947,1.985-11.612,4.963-11.612c4.268,0,7.047,6.153,7.047,15.384
				V-120.447z"/>
		</g>
	</g>
</g>
<g transform="translate(-317.7570093457944, -80.66139468008627) scale(1.5) matrix(1 0 0 -1 0 0)">
	<g>
		<g transform="skewX(0)">
			<path fill="#00C4D6" d="M309.436-127.021c0,15.885,9.692,26.476,24.178,26.476c6.194,0,12.389-3.197,15.486-7.893v8.238v-0.299
				l0,0l0,0l0,0c6.494,0.1,12.989,0.2,19.483,0.299l0,0v-52.298v0.299l0,0l0,0l0,0c-6.494-0.1-12.989-0.2-19.483-0.299h0.7
				l-0.7,4.995c-2.297-3.597-8.492-5.995-15.486-5.995C319.128-153.498,309.436-142.907,309.436-127.021z M328.919-127.021
				c0-12.489,4.196-20.782,10.49-20.782c6.195,0,10.391,8.293,10.391,20.782c0,12.589-4.196,20.98-10.391,20.98
				C333.115-106.041,328.919-114.432,328.919-127.021z"/>
		</g>
	</g>
</g>
</svg>
