<?xml version="1.0" encoding="utf-8"?>
<!-- Generator: Adobe Illustrator 16.0.0, SVG Export Plug-In . SVG Version: 6.00 Build 0)  -->
<!DOCTYPE svg PUBLIC "-//W3C//DTD SVG 1.1//EN" "http://www.w3.org/Graphics/SVG/1.1/DTD/svg11.dtd">
<svg version="1.1" id="Calque_1" xmlns="http://www.w3.org/2000/svg" xmlns:xlink="http://www.w3.org/1999/xlink" x="0px" y="0px"
	 width="280px" height="200px" viewBox="0 0 280 200" enable-background="new 0 0 280 200" xml:space="preserve">
<rect fill="#FFFFFF" width="280" height="200"/>
<g>
	<g>
		<path fill="#FF725E" d="M48.574,73.477c-3.049,2.668-6.836,4.001-11.361,4.001c-4.001,0-7.229-1.214-9.682-3.644
			c-2.406-2.429-3.608-5.549-3.608-9.36c0-2.405,0.655-4.484,1.965-6.234c1.31-1.751,2.84-3.001,4.59-3.751
			c1.75-0.75,3.335-1.292,4.751-1.625c1.417-0.333,2.853-0.583,4.305-0.75c2.453-0.286,5.24-0.429,8.36-0.429v-2.221
			c0-1.609-0.477-2.672-1.429-3.187c-1-0.515-3.001-0.773-6.002-0.773c-2.429,0-5.514,0.524-9.253,1.57
			c-1.12,0.327-2.132,0.687-3.037,1.079l-2.68-7.543c2.93-1.786,7.086-3.131,12.469-4.037c1.809-0.286,3.971-0.429,6.484-0.429
			c2.512,0,4.888,0.27,7.127,0.808c2.238,0.539,4.061,1.418,5.466,2.636c2.667,2.273,4.001,6.174,4.001,11.704v26.187h-8.289
			c-1.525,0-2.513-0.143-2.966-0.429c-0.81-0.547-1.214-1.644-1.214-3.287V73.477z M37.57,63.974c0,0.857,0.144,1.631,0.429,2.322
			c0.286,0.691,0.679,1.263,1.179,1.714c0.929,0.882,2.12,1.322,3.572,1.322c1.548,0,2.989-0.381,4.323-1.144
			c0.357-0.19,0.631-0.38,0.822-0.571v-9.575c-2.978,0-5.359,0.417-7.146,1.25C38.629,60.079,37.57,61.639,37.57,63.974z"/>
		<path fill="#FF725E" d="M75.083,45.146h30.367v9.932H75.083V45.146z"/>
		<path fill="#FF725E" d="M115.811,74.403l22.329-38.43l2.394-3.546h-22.15v-9.932h39.121l1.464,2.931l-21.9,38.07l-2.644,3.8
			h23.187v10.146h-40.299L115.811,74.403z"/>
	</g>
</g>
<g>
	<g>
		<path fill="#00C4D6" d="M26.133,141.906c-0.917-2.307-1.564-4.699-1.943-7.18c-0.379-2.482-0.569-5.555-0.569-9.221
			s0.735-7.379,2.204-11.139c1.47-3.76,3.5-6.938,6.091-9.527c5.34-5.341,12.387-8.011,21.141-8.011
			c13.114,0,21.63,5.103,25.549,15.31c1.58,4.172,2.37,9.055,2.37,14.646c0,9.514-2.654,17.082-7.963,22.705
			c-5.278,5.562-12.324,8.342-21.141,8.342C38.884,157.832,30.305,152.523,26.133,141.906z M63.296,127.781
			c0-8.658-1.991-14.504-5.973-17.539c-1.359-1.01-2.986-1.516-4.882-1.516c-0.063,0-0.126,0-0.189,0
			c-3.54,0-6.273,1.549-8.201,4.645c-1.896,3.035-2.844,7.316-2.844,12.846c0,5.436,0.956,10.072,2.868,13.912
			s4.661,5.76,8.248,5.76c3.586,0,6.312-1.549,8.177-4.645C62.363,138.146,63.296,133.658,63.296,127.781z"/>
		<path fill="#00C4D6" d="M119.087,131.764c0.789,1.105,1.706,1.92,2.749,2.439c1.043,0.523,2.338,0.783,3.887,0.783
			c1.548,0,3.46-0.379,5.736-1.137l3.081,9.053c-1.548,2.117-4.629,3.65-9.243,4.598c-1.707,0.348-3.832,0.521-6.375,0.521
			c-2.544,0-5.065-0.592-7.561-1.777c-2.497-1.186-4.646-2.82-6.447-4.906c-3.792-4.391-5.688-9.938-5.688-16.637
			c0-8.027,2.512-14.475,7.536-19.342c5.373-5.181,12.83-7.772,22.374-7.772c8.279,0,14.979,2.796,20.098,8.39
			c5.12,5.594,7.679,12.879,7.679,21.854c0,9.164-2.434,17.631-7.3,25.404c-4.203,6.699-9.86,12.342-16.97,16.924
			c-6.478,4.17-12.75,6.619-18.818,7.346l-4.171-10.049c5.846-1.422,11.06-4.188,15.642-8.295
			c6.193-5.561,10.239-12.418,12.135-20.572c0.6-2.621,0.901-5.34,0.901-8.152s-0.206-5.506-0.616-8.082
			c-0.411-2.574-1.06-4.826-1.943-6.754c-1.896-3.982-4.654-5.973-8.272-5.973c-3.619,0-6.344,1.027-8.176,3.082
			c-1.833,2.053-2.75,4.613-2.75,7.678c0,3.066,0.221,5.451,0.664,7.156C117.68,129.252,118.296,130.658,119.087,131.764z"/>
	</g>
</g>
<g>
	<path fill="#4D4D4D" d="M255.954,169.033c-3.122,0-5.82-1.084-8.094-3.258c-2.308-2.271-3.462-4.988-3.462-8.145
		s1.019-5.701,3.055-7.635c1.969-1.832,4.514-2.748,7.636-2.748s5.837,1.086,8.145,3.258s3.461,4.854,3.461,8.041
		c0,3.09-1.018,5.6-3.054,7.535C261.536,168.051,258.975,169.033,255.954,169.033z M174.967,168.373v-20.719l60.575,2.037v15.982
		L174.967,168.373z"/>
	<path fill="#4D4D4D" d="M185.962,123.68c0,4.275,0.814,8.279,2.443,12.014h-13.642c-1.392-2.172-2.359-6.074-2.902-11.709
		c-0.169-1.73-0.254-4.25-0.254-7.559s0.526-6.812,1.578-10.512c3.088-10.893,9.756-16.34,20.004-16.34
		c6.618,0,11.997,2.274,16.137,6.821c1.188,1.323,2.316,2.664,3.386,4.021c1.068,1.357,2.13,2.699,3.181,4.021
		c1.053,1.324,2.189,2.512,3.411,3.564c2.885,2.512,6.295,3.766,10.231,3.766c1.222,0,2.512-0.186,3.868-0.561
		c1.358-0.373,3.004-0.814,4.938-1.322v14.457c-4.174,2.512-8.449,3.766-12.827,3.766c-5.124,0-9.553-1.916-13.286-5.752
		c-1.052-1.086-2.069-2.197-3.054-3.334s-1.96-2.256-2.928-3.359c-0.967-1.104-1.992-2.096-3.079-2.979
		c-2.409-1.9-5.005-2.85-7.788-2.85C189.102,109.834,185.962,114.449,185.962,123.68z M256.514,126.631
		c-2.918,0-5.479-1.084-7.687-3.258c-2.205-2.137-3.309-4.732-3.309-7.787c0-4.615,2.036-7.721,6.108-9.316
		c1.256-0.508,2.613-0.764,4.072-0.764c2.952,0,5.516,1.053,7.687,3.156c2.206,2.139,3.309,4.734,3.309,7.789
		c0,2.986-0.967,5.43-2.901,7.33C261.825,125.682,259.398,126.631,256.514,126.631z"/>
	<path fill="#4D4D4D" d="M216.147,79.851l-7.075-14.711l-2.139-8.145c-0.033,0.17-0.144,0.646-0.33,1.426s-0.383,1.646-0.586,2.596
		c-0.543,2.545-0.882,3.954-1.018,4.225l-6.669,14.966l-12.369-6.312L195.582,60l6.16-6.007c-0.17,0.034-0.653,0.17-1.451,0.407
		c-0.797,0.237-1.654,0.492-2.57,0.764c-2.512,0.746-3.92,1.137-4.225,1.171l-16.341,2.036V44.525l16.086,1.374l8.399,2.239
		c-0.103-0.169-0.849-0.848-2.24-2.036c-1.968-1.764-3.359-3.054-4.174-3.868l-9.773-13.54l12.318-6.465l6.82,14.609l2.291,8.297
		l1.985-8.399l6.363-14.863l12.776,6.974l-9.569,12.93l-6.108,6.261c0.17-0.033,0.645-0.169,1.425-0.407
		c0.781-0.237,1.629-0.491,2.545-0.764c0.917-0.271,1.782-0.534,2.597-0.789c0.814-0.254,1.341-0.398,1.578-0.433l16.441-1.883
		v13.795l-16.34-1.477l-8.298-2.188l6.465,5.904l9.824,13.235L216.147,79.851z"/>
</g>
</svg>
