<?xml version="1.0" encoding="utf-8"?>
<!-- Generator: Adobe Illustrator 16.0.0, SVG Export Plug-In . SVG Version: 6.00 Build 0)  -->
<!DOCTYPE svg PUBLIC "-//W3C//DTD SVG 1.1//EN" "http://www.w3.org/Graphics/SVG/1.1/DTD/svg11.dtd">
<svg version="1.1" id="Calque_1" xmlns="http://www.w3.org/2000/svg" xmlns:xlink="http://www.w3.org/1999/xlink" x="0px" y="0px"
	 width="74.302px" height="71.135px" viewBox="0 0 74.302 71.135" enable-background="new 0 0 74.302 71.135" xml:space="preserve">
<path fill="#FFFFFF" d="M48.599,0h-22.9C11.527,0,0,12.475,0,27.81c0,14.017,9.407,25.538,21.905,27.506v12.75
	c0,1.252,0.766,2.381,1.931,2.848c0.368,0.148,0.757,0.221,1.144,0.221c0.816,0,1.626-0.33,2.218-0.945L41.145,55.62h7.454
	c14.176,0,25.703-12.474,25.703-27.81C74.302,12.475,62.774,0,48.599,0z M34.465,27.06c0,5.259-1.021,9.017-3.034,11.172
	c-2.022,2.167-4.793,3.266-8.235,3.266c-0.285,0-0.509-0.225-0.509-0.505v-4.3c0-0.279,0.224-0.508,0.509-0.508
	c2.751,0,4.092-1.892,4.092-5.783v-1.747h-6.521c-0.281,0-0.511-0.229-0.511-0.509V16.193c0-0.282,0.229-0.509,0.511-0.509h13.189
	c0.282,0,0.509,0.227,0.509,0.509V27.06L34.465,27.06z M54.203,27.06c0,5.259-1.015,9.017-3.011,11.172
	c-2.009,2.167-4.789,3.266-8.258,3.266c-0.286,0-0.511-0.225-0.511-0.505v-4.3c0-0.279,0.225-0.508,0.511-0.508
	c2.75,0,4.087-1.892,4.087-5.783v-1.747h-6.517c-0.279,0-0.509-0.229-0.509-0.509V16.193c0-0.282,0.229-0.509,0.509-0.509h13.188
	c0.284,0,0.51,0.227,0.51,0.509V27.06z"/>
</svg>
