<?xml version="1.0" encoding="utf-8"?>
<!-- Generator: Adobe Illustrator 16.0.0, SVG Export Plug-In . SVG Version: 6.00 Build 0)  -->
<!DOCTYPE svg PUBLIC "-//W3C//DTD SVG 1.1//EN" "http://www.w3.org/Graphics/SVG/1.1/DTD/svg11.dtd">
<svg version="1.1" id="Calque_1" xmlns="http://www.w3.org/2000/svg" xmlns:xlink="http://www.w3.org/1999/xlink" x="0px" y="0px"
	 width="800px" height="600px" viewBox="0 0 800 600" enable-background="new 0 0 800 600" xml:space="preserve">
<g>
	<g>
		<path fill="#FFFFFF" d="M605.889,380.796V300.14c0.158-4.666,0.175-9.309,0-13.958v-79.199c3.472-0.788,6.078-3.893,6.078-7.6
			c0-4.309-3.51-7.808-7.819-7.808c-4.315,0-7.825,3.499-7.825,7.808c0,3.707,2.607,6.812,6.084,7.617v49.565
			c-3.619-18.426-9.96-36.369-18.957-53.349h0.581v-11.274h-6.998c-28.648-46.428-75.612-78.373-128.408-88.672h50.058
			c0.789,3.466,3.894,6.073,7.605,6.073c4.304,0,7.814-3.499,7.814-7.814s-3.511-7.813-7.814-7.813
			c-3.707,0-6.816,2.595-7.605,6.062h-80.573c-0.269,0-0.537,0-0.806-0.005v-3.986h-11.29v3.97c-0.29,0.022-0.586,0.017-0.882,0.022
			H324.87c-0.799-3.466-3.899-6.062-7.606-6.062c-4.309,0-7.824,3.499-7.824,7.813s3.515,7.814,7.824,7.814
			c3.707,0,6.807-2.606,7.606-6.073h49.784c-21.015,4.107-41.352,11.685-60.073,22.51c-28.873,16.684-51.838,39.72-68.155,66.337
			h-7.042v11.274h0.679c-8.947,17.062-15.31,35.329-18.913,54.17v-50.578c3.472-0.788,6.073-3.893,6.073-7.6
			c0-4.309-3.51-7.808-7.814-7.808c-4.314,0-7.819,3.499-7.819,7.808c0,3.707,2.595,6.812,6.072,7.617v82.852v0.843v90.101
			c-3.477,0.8-6.072,3.893-6.072,7.6c0,4.32,3.504,7.825,7.819,7.825c4.304,0,7.814-3.505,7.814-7.825c0-3.707-2.601-6.8-6.073-7.6
			v-50.025c3.532,18.382,9.802,36.495,18.951,53.809h-0.586v11.274h6.998c28.638,46.406,75.591,78.356,128.359,88.667H324.87
			c-0.799-3.472-3.899-6.078-7.606-6.078c-4.309,0-7.824,3.51-7.824,7.813c0,4.32,3.515,7.824,7.824,7.824
			c3.707,0,6.807-2.601,7.606-6.083h80.393c0.328,0.022,0.651,0.022,0.979,0.027V492h11.285v-3.976
			c0.351-0.005,0.701-0.005,1.052-0.027h80.103c0.789,3.482,3.894,6.083,7.605,6.083c4.304,0,7.814-3.504,7.814-7.824
			c0-4.304-3.511-7.813-7.814-7.813c-3.707,0-6.816,2.606-7.605,6.078h-49.734c20.993-4.112,41.318-11.69,60.018-22.505
			c28.369-16.395,51.613-39.167,68.281-66.337h6.91v-11.285h-0.548c6.653-12.682,11.986-26.157,15.775-40.339
			c1.183-4.436,2.146-8.887,3.022-13.345v50.086c-3.477,0.8-6.084,3.893-6.084,7.6c0,4.32,3.51,7.825,7.825,7.825
			c4.31,0,7.819-3.505,7.819-7.825C611.967,384.688,609.36,381.596,605.889,380.796z M599.811,199.383
			c0-2.387,1.938-4.331,4.337-4.331c2.382,0,4.331,1.944,4.331,4.331c0,2.393-1.949,4.326-4.331,4.326
			C601.749,203.709,599.811,201.776,599.811,199.383z M506.287,97.198c2.382,0,4.326,1.938,4.326,4.331
			c0,2.387-1.944,4.337-4.326,4.337c-2.387,0-4.331-1.95-4.331-4.337C501.956,99.136,503.9,97.198,506.287,97.198z M317.264,105.866
			c-2.393,0-4.342-1.95-4.342-4.337c0-2.393,1.949-4.331,4.342-4.331c2.382,0,4.332,1.938,4.332,4.331
			C321.595,103.916,319.646,105.866,317.264,105.866z M215.067,199.383c0-2.387,1.949-4.331,4.342-4.331
			c2.388,0,4.326,1.944,4.326,4.331c0,2.393-1.938,4.326-4.326,4.326C217.017,203.709,215.067,201.776,215.067,199.383z
			 M223.735,388.396c0,2.388-1.938,4.343-4.326,4.343c-2.393,0-4.342-1.955-4.342-4.343c0-2.387,1.949-4.325,4.342-4.325
			C221.797,384.07,223.735,386.009,223.735,388.396z M317.264,490.593c-2.393,0-4.342-1.949-4.342-4.337s1.949-4.326,4.342-4.326
			c2.382,0,4.332,1.938,4.332,4.326S319.646,490.593,317.264,490.593z M506.287,481.93c2.382,0,4.326,1.938,4.326,4.326
			s-1.944,4.337-4.326,4.337c-2.387,0-4.331-1.949-4.331-4.337S503.9,481.93,506.287,481.93z M417.527,481.087v-0.355h-11.285v0.378
			l-154.56-89.116h319.967L417.527,481.087z M250.675,196.503l155.338-89.811v0.372h0.334l-159.472,276.59l-0.104-180.263h3.904
			V196.503z M576.671,203.216l0.093,180.624L416.859,107.064h0.443v-0.377l155.441,89.63v6.899H576.671z M368.62,285.707
			l42.239-92.396l40.312,92.396H368.62z M467.881,324.244l27.768,64.256H322.077l29.475-64.256H467.881z M402.951,119.933
			L277.911,388.5h-27.11v-3.921h-0.438L402.951,119.933z M572.871,384.394v4.106h-32.378L418.459,116.784l154.609,267.609H572.871z
			 M580.542,195.425v2.458v1.845h-0.395h-2.573h-0.92h-0.422v-1.402v-0.958v-1.943h1.949h0.947H580.542z M572.92,191.942h-0.176
			v0.35l-154.367-89C481.215,105.537,539.332,138.895,572.92,191.942z M409.5,99.273h1.337h1.522h1.456v0.433v0.071v0.876v1.145
			v1.396c-0.493-0.005-0.985-0.027-1.479-0.027c-0.252,0-0.493-0.011-0.745-0.011c-0.279,0-0.553,0.011-0.838,0.011
			c-0.421,0.011-0.837,0.022-1.254,0.027v-1.604v-0.936v-0.876v-0.071V99.273z M316.316,128.792
			c27.094-15.66,57.604-24.41,88.65-25.517l-154.292,89.203v-0.361h-0.109C266.521,166.765,288.643,144.792,316.316,128.792z
			 M242.878,195.611h1.511h0.876h1.927v2.13v0.778v1.396h-0.421h-0.843h-2.645h-0.405v-1.681V195.611z M221.15,291.352v-1.445
			c0.668-29.694,8.296-58.896,22.133-85.151l0.109,178.576C227.853,354.113,220.69,322.514,221.15,291.352z M243.004,392.365v-0.372
			v-1.626v-0.455v-1.845h0.389h0.937h1.637h0.92h0.427v1.401v0.959v1.565v0.372h-1.955h-0.947H243.004z M250.62,395.854h0.181
			v-0.351l154.352,89.001C342.326,482.253,284.208,448.891,250.62,395.854z M414.045,488.522h-4.314v-0.443v-0.082v-0.854v-2.54
			v-0.082v-0.302h1.905h0.487h1.922v0.302v0.082v2.529v0.865v0.093V488.522z M507.229,459.004
			c-27.093,15.66-57.613,24.41-88.66,25.517l154.303-89.209v0.367h0.263C556.86,421.551,534.438,443.272,507.229,459.004z
			 M580.674,390.592v1.401v0.192h-1.391h-1.014h-1.911v-0.192v-1.703v-1.029v-1.38h0.417h1.002h1.33h1.145h0.422v1.949V390.592z
			 M596.011,343.146c-3.772,14.122-9.101,27.537-15.759,40.142l-0.104-178.855c13.651,25.637,21.163,53.513,22.259,81.876v13.728
			C601.919,314.437,599.832,328.887,596.011,343.146z M604.147,392.738c-2.398,0-4.337-1.955-4.337-4.343
			c0-2.387,1.938-4.325,4.337-4.325c2.382,0,4.331,1.938,4.331,4.325C608.479,390.783,606.529,392.738,604.147,392.738z"/>
	</g>
	<g>
		<path fill="#FFFFFF" d="M467.191,0.937l3.828,0.832l0.07,2.552l0.164,0.039c0.926-0.871,1.911-1.44,2.969-1.714
			c1.067-0.279,2.283-0.269,3.646,0.043c2.529,0.537,4.249,1.752,5.163,3.642c0.915,1.873,0.98,4.578,0.208,8.137
			c-0.377,1.714-0.92,3.22-1.626,4.518c-0.701,1.297-1.566,2.338-2.568,3.126c-1.002,0.799-2.13,1.331-3.39,1.588
			c-1.254,0.257-2.617,0.224-4.096-0.088c-0.838-0.186-1.5-0.394-2.015-0.641c-0.515-0.241-1.007-0.547-1.483-0.942l-1.812,8.274
			l-5.235-1.145L467.191,0.937z M475.328,6.768c-1.019-0.225-1.873-0.142-2.562,0.241c-0.689,0.395-1.309,1.052-1.856,2.004
			l-1.834,8.383c0.312,0.383,0.673,0.711,1.073,0.98c0.405,0.268,0.975,0.482,1.697,0.641c1.506,0.334,2.749,0.049,3.734-0.843
			c0.985-0.898,1.747-2.568,2.283-5.021c0.384-1.769,0.389-3.208,0.006-4.304C477.496,7.754,476.648,7.058,475.328,6.768z"/>
		<path fill="#FFFFFF" d="M502.893,15.332c-0.729-0.537-1.424-0.909-2.081-1.106c-0.92-0.273-1.763-0.268-2.535,0.033
			c-0.767,0.295-1.363,0.805-1.812,1.506l-3.854,12.752l-5.131-1.549l5.969-19.751l3.986,1.199l-0.191,2.793l0.158,0.043
			c0.739-0.837,1.571-1.402,2.497-1.703c0.92-0.296,1.895-0.291,2.924,0.021c0.685,0.203,1.424,0.592,2.196,1.145L502.893,15.332z"
			/>
		<path fill="#FFFFFF" d="M507.174,22.259c1.271-3.258,3.045-5.443,5.312-6.576c2.278-1.15,4.857-1.156,7.727-0.039
			c1.533,0.597,2.771,1.375,3.712,2.3c0.932,0.931,1.604,1.977,2.004,3.154c0.4,1.172,0.537,2.453,0.417,3.855
			c-0.115,1.402-0.472,2.858-1.058,4.37c-1.275,3.252-3.038,5.454-5.3,6.604c-2.256,1.139-4.824,1.15-7.693,0.027
			c-1.538-0.597-2.776-1.369-3.712-2.294c-0.942-0.925-1.615-1.977-2.026-3.154c-0.411-1.183-0.559-2.47-0.443-3.871
			C506.232,25.237,506.588,23.775,507.174,22.259z M512.327,24.268c-0.329,0.849-0.554,1.67-0.685,2.437
			c-0.121,0.783-0.137,1.495-0.038,2.158c0.099,0.657,0.339,1.232,0.717,1.714c0.389,0.493,0.926,0.881,1.621,1.144
			c1.303,0.515,2.464,0.417,3.482-0.285c1.007-0.695,1.911-2.075,2.71-4.118c0.685-1.774,0.953-3.318,0.789-4.638
			c-0.17-1.314-0.953-2.256-2.365-2.798c-1.232-0.487-2.371-0.394-3.423,0.252C514.084,20.796,513.148,22.166,512.327,24.268z"/>
		<path fill="#FFFFFF" d="M534.771,22.33l2.562,1.238l1.691-3.499l5.492,0.953l-2.349,4.874l4.539,2.185l-1.977,4.096l-4.534-2.196
			l-3.438,7.14c-0.63,1.281-0.941,2.272-0.947,2.952c-0.011,0.69,0.345,1.205,1.062,1.544c0.498,0.247,0.947,0.405,1.353,0.471
			c0.405,0.076,0.882,0.126,1.424,0.137l-0.937,4.128c-0.827,0-1.735-0.104-2.737-0.307c-1.002-0.208-1.955-0.537-2.875-0.98
			c-1.709-0.821-2.754-1.867-3.138-3.126c-0.378-1.276-0.082-2.918,0.887-4.923l4.518-9.363l-2.567-1.237L534.771,22.33z"/>
		<path fill="#FFFFFF" d="M547.639,40.104c1.764-3.028,3.844-4.922,6.275-5.7c2.415-0.767,4.961-0.389,7.622,1.172
			c1.435,0.821,2.53,1.769,3.318,2.825c0.783,1.062,1.286,2.207,1.5,3.417c0.208,1.232,0.147,2.53-0.181,3.888
			c-0.334,1.369-0.908,2.749-1.725,4.162c-1.758,3.011-3.833,4.922-6.248,5.689c-2.409,0.783-4.944,0.405-7.605-1.139
			c-1.435-0.838-2.529-1.785-3.318-2.842c-0.783-1.062-1.292-2.201-1.517-3.434c-0.225-1.221-0.164-2.519,0.165-3.893
			C546.254,42.885,546.828,41.505,547.639,40.104z M552.425,42.869c-0.454,0.799-0.805,1.561-1.052,2.311
			c-0.24,0.75-0.361,1.451-0.372,2.119c-0.005,0.674,0.147,1.271,0.449,1.812c0.307,0.547,0.783,1.002,1.418,1.369
			c1.216,0.711,2.376,0.794,3.482,0.257s2.218-1.752,3.313-3.652c0.963-1.648,1.456-3.132,1.5-4.463
			c0.038-1.325-0.598-2.365-1.911-3.126c-1.139-0.668-2.278-0.75-3.417-0.268C554.697,39.715,553.559,40.931,552.425,42.869z"/>
		<path fill="#FFFFFF" d="M574.946,44.429l2.343,1.615l2.201-3.198l5.284,1.796l-3.066,4.446l4.146,2.858l-2.574,3.734l-4.15-2.853
			l-4.5,6.532c-0.806,1.172-1.276,2.097-1.386,2.765c-0.115,0.679,0.159,1.232,0.815,1.687c0.455,0.323,0.877,0.537,1.266,0.679
			c0.394,0.137,0.854,0.246,1.385,0.35l-1.566,3.937c-0.805-0.126-1.691-0.372-2.645-0.723c-0.958-0.356-1.861-0.833-2.693-1.407
			c-1.566-1.073-2.438-2.267-2.623-3.587c-0.176-1.309,0.367-2.88,1.626-4.714l5.903-8.564l-2.344-1.621L574.946,44.429z"/>
		<path fill="#FFFFFF" d="M590.103,69.798l-1.429,2.99l0.202,0.148l2.447-2.207l9.653-7.085l4.326,3.439l-16.504,10.645
			c-1.374,0.887-2.645,1.675-3.811,2.376c-1.172,0.701-2.283,1.237-3.318,1.604c-1.035,0.373-1.987,0.537-2.853,0.499
			c-0.865-0.044-1.676-0.361-2.432-0.958c-1.116-0.898-1.856-1.785-2.233-2.688l3.443-2.738c0.225,0.389,0.493,0.712,0.816,0.964
			c0.492,0.394,1.139,0.569,1.938,0.515c0.794-0.044,1.757-0.52,2.869-1.44l6.105-21.503l5.032,4.014L590.103,69.798z"/>
		<path fill="#FFFFFF" d="M610.505,71.692l2.842,2.699l-1.26,2.223l0.126,0.11c1.237-0.269,2.377-0.247,3.434,0.076
			c1.04,0.307,2.08,0.947,3.094,1.917c1.878,1.774,2.721,3.707,2.535,5.788c-0.191,2.075-1.539,4.424-4.036,7.063
			c-1.216,1.276-2.453,2.283-3.729,3.034c-1.276,0.739-2.552,1.193-3.822,1.352c-1.265,0.165-2.508,0.027-3.712-0.405
			c-1.211-0.422-2.365-1.156-3.461-2.19c-0.619-0.591-1.084-1.128-1.402-1.588c-0.307-0.471-0.574-1.002-0.782-1.577l-5.826,6.138
			l-3.894-3.69L610.505,71.692z M614.452,80.897c-0.755-0.717-1.533-1.09-2.321-1.123c-0.789-0.027-1.67,0.225-2.623,0.755
			l-5.908,6.226c0.066,0.487,0.214,0.947,0.416,1.391c0.209,0.443,0.581,0.915,1.111,1.429c1.123,1.062,2.328,1.462,3.637,1.21
			c1.309-0.263,2.825-1.297,4.55-3.11c1.249-1.32,1.993-2.546,2.234-3.68C615.794,82.857,615.427,81.828,614.452,80.897z"/>
		<path fill="#FFFFFF" d="M621.521,96.792c2.623-2.3,5.207-3.433,7.748-3.395c2.546,0.027,4.829,1.216,6.866,3.516
			c1.09,1.248,1.84,2.491,2.245,3.75c0.405,1.254,0.515,2.492,0.328,3.718c-0.186,1.221-0.656,2.431-1.406,3.625
			c-0.751,1.183-1.73,2.311-2.952,3.384c-2.622,2.305-5.202,3.455-7.737,3.417c-2.529-0.016-4.812-1.194-6.844-3.504
			c-1.09-1.237-1.84-2.486-2.245-3.745c-0.411-1.254-0.526-2.497-0.351-3.734c0.186-1.232,0.641-2.448,1.396-3.636
			C619.314,98.994,620.306,97.86,621.521,96.792z M625.174,100.948c-0.685,0.597-1.266,1.216-1.73,1.846
			c-0.471,0.641-0.811,1.265-1.029,1.895c-0.214,0.629-0.269,1.243-0.153,1.861c0.12,0.613,0.427,1.194,0.914,1.752
			c0.926,1.051,1.999,1.5,3.22,1.353c1.221-0.159,2.656-0.964,4.31-2.409c1.424-1.259,2.365-2.508,2.831-3.751
			c0.46-1.254,0.191-2.442-0.811-3.581c-0.871-0.986-1.922-1.435-3.159-1.336C628.333,98.665,626.871,99.459,625.174,100.948z"/>
		<path fill="#FFFFFF" d="M632.33,121.235c0.767-0.586,1.555-0.805,2.371-0.668c0.816,0.132,1.522,0.597,2.13,1.386
			c0.63,0.827,0.903,1.664,0.827,2.486c-0.077,0.827-0.504,1.528-1.271,2.108c-0.761,0.591-1.556,0.816-2.388,0.679
			c-0.821-0.121-1.549-0.603-2.189-1.44c-0.603-0.783-0.86-1.593-0.768-2.431C631.137,122.533,631.563,121.827,632.33,121.235z"/>
		<path fill="#FFFFFF" d="M655.87,122.922l3.033,4.424l-16.996,11.696l-3.039-4.424L655.87,122.922z M660.212,118.979
			c0.657-0.449,1.391-0.591,2.185-0.427c0.8,0.164,1.501,0.679,2.098,1.544c0.592,0.865,0.838,1.714,0.739,2.573
			c-0.099,0.844-0.481,1.5-1.134,1.955c-0.657,0.455-1.391,0.559-2.195,0.329c-0.811-0.225-1.512-0.772-2.108-1.637
			c-0.591-0.854-0.838-1.676-0.729-2.475C659.172,120.053,659.555,119.434,660.212,118.979z"/>
		<path fill="#FFFFFF" d="M655.026,139.973c3.012-1.769,5.761-2.393,8.252-1.878c2.491,0.515,4.512,2.098,6.078,4.759
			c0.832,1.423,1.336,2.781,1.495,4.096c0.164,1.303,0.038,2.552-0.373,3.712c-0.422,1.171-1.101,2.267-2.064,3.296
			c-0.958,1.029-2.135,1.955-3.537,2.781c-3.012,1.769-5.76,2.398-8.246,1.895c-2.475-0.503-4.501-2.081-6.062-4.742
			c-0.838-1.423-1.33-2.782-1.495-4.096c-0.164-1.303-0.038-2.552,0.367-3.734c0.4-1.188,1.09-2.283,2.043-3.313
			C652.447,141.726,653.625,140.8,655.026,139.973z M657.824,144.748c-0.777,0.454-1.461,0.953-2.042,1.489
			c-0.575,0.525-1.035,1.084-1.369,1.659c-0.328,0.575-0.492,1.177-0.492,1.796c0,0.635,0.186,1.259,0.563,1.895
			c0.707,1.216,1.676,1.856,2.908,1.938c1.227,0.077,2.781-0.438,4.682-1.566c1.637-0.953,2.798-2.004,3.487-3.137
			c0.679-1.145,0.646-2.366-0.12-3.663c-0.668-1.15-1.621-1.785-2.854-1.917C661.362,143.1,659.779,143.598,657.824,144.748z"/>
		<path fill="#FFFFFF" d="M681.387,425.663c0.903,0.477,1.647,1.057,2.229,1.758c0.586,0.7,1.002,1.462,1.254,2.3
			c0.252,0.821,0.345,1.675,0.263,2.551c-0.083,0.865-0.334,1.72-0.762,2.558c-0.433,0.827-0.975,1.544-1.626,2.146
			c-0.657,0.613-1.391,1.062-2.212,1.353c-0.816,0.29-1.681,0.395-2.606,0.317c-0.92-0.071-1.856-0.351-2.809-0.843
			c-0.953-0.499-1.72-1.096-2.301-1.797c-0.58-0.706-0.985-1.467-1.204-2.288c-0.229-0.838-0.279-1.692-0.159-2.574
			c0.109-0.887,0.384-1.746,0.816-2.579c0.427-0.821,0.964-1.533,1.604-2.113c0.646-0.58,1.363-1.013,2.157-1.303
			c0.799-0.279,1.653-0.389,2.568-0.323C679.503,424.891,680.434,425.17,681.387,425.663z M679.492,429.332
			c-0.783-0.406-1.518-0.488-2.207-0.264c-0.695,0.225-1.21,0.68-1.55,1.336c-0.345,0.663-0.416,1.353-0.219,2.076
			c0.202,0.723,0.695,1.281,1.479,1.686c0.777,0.417,1.533,0.482,2.267,0.252c0.723-0.252,1.26-0.695,1.604-1.357
			c0.339-0.663,0.394-1.342,0.153-2.059C680.784,430.295,680.274,429.742,679.492,429.332z"/>
		<path fill="#FFFFFF" d="M447.249,598.216l-5.344,0.471l-0.854-9.878l-0.164,0.021c-0.521,0.701-1.216,1.293-2.086,1.753
			c-0.871,0.465-1.856,0.739-2.951,0.837c-2.465,0.214-4.425-0.471-5.87-2.042c-1.451-1.565-2.321-4.073-2.628-7.534
			c-0.318-3.701,0.35-6.593,2.009-8.662c1.653-2.081,4.068-3.253,7.255-3.532c1.753-0.159,3.362-0.159,4.841,0.011
			c1.479,0.164,2.601,0.389,3.373,0.68L447.249,598.216z M437.021,586.766c0.985-0.082,1.763-0.416,2.332-0.969
			c0.58-0.569,0.985-1.342,1.237-2.327l-0.777-8.958c-0.46-0.187-0.947-0.301-1.462-0.328c-0.515-0.044-1.057-0.039-1.637,0.005
			c-1.451,0.137-2.508,0.756-3.166,1.873c-0.668,1.128-0.902,2.836-0.7,5.142C433.188,585.118,434.579,586.969,437.021,586.766z"/>
		<path fill="#FFFFFF" d="M412.709,580.277l-0.799-3.209h-0.247l-0.481,3.275l-2.951,11.607l-5.531,0.082l5.975-18.71
			c0.492-1.544,0.969-2.968,1.439-4.249c0.455-1.292,0.964-2.409,1.528-3.351c0.563-0.947,1.188-1.676,1.889-2.201
			c0.685-0.515,1.517-0.783,2.476-0.806c1.435-0.021,2.584,0.203,3.438,0.652l-0.92,4.304c-0.416-0.153-0.827-0.225-1.237-0.225
			c-0.636,0.005-1.238,0.29-1.824,0.832c-0.586,0.548-1.013,1.522-1.297,2.936l8.958,20.489l-6.439,0.104L412.709,580.277z"/>
		<path fill="#FFFFFF" d="M261.812,561.091l-4.605-2.76l5.098-8.492l-0.142-0.082c-0.833,0.268-1.736,0.328-2.716,0.191
			c-0.975-0.126-1.938-0.477-2.88-1.046c-2.125-1.281-3.307-2.974-3.559-5.098c-0.252-2.13,0.52-4.671,2.305-7.649
			c1.911-3.182,4.145-5.131,6.702-5.837c2.568-0.712,5.208-0.241,7.951,1.401c1.506,0.903,2.809,1.862,3.915,2.858
			c1.095,0.996,1.873,1.834,2.327,2.524L261.812,561.091z M260.246,545.814c0.844,0.504,1.67,0.711,2.464,0.586
			c0.789-0.115,1.577-0.51,2.354-1.15l4.632-7.726c-0.263-0.411-0.591-0.783-0.985-1.123c-0.395-0.334-0.838-0.641-1.331-0.937
			c-1.254-0.755-2.48-0.865-3.663-0.35c-1.199,0.514-2.393,1.773-3.581,3.75C258.111,542.244,258.144,544.555,260.246,545.814z"/>
		<path fill="#FFFFFF" d="M244.279,526.223l1.287-3.05l-0.208-0.143l-2.349,2.327l-9.297,7.534l-4.485-3.247l15.983-11.416
			c1.325-0.937,2.557-1.791,3.69-2.547c1.139-0.744,2.223-1.336,3.231-1.758c1.019-0.421,1.966-0.629,2.831-0.635
			c0.865,0,1.692,0.285,2.469,0.843c1.161,0.844,1.95,1.698,2.366,2.574l-3.318,2.901c-0.23-0.383-0.515-0.689-0.854-0.925
			c-0.515-0.372-1.161-0.515-1.96-0.427c-0.789,0.082-1.72,0.613-2.787,1.582l-5.087,21.771l-5.224-3.767L244.279,526.223z"/>
		<path fill="#FFFFFF" d="M226.254,527.197l-2.179-1.823l-2.486,2.973l-5.104-2.267l3.472-4.146l-3.866-3.225l2.908-3.488
			l3.865,3.236l5.076-6.089c0.92-1.101,1.467-1.977,1.643-2.64c0.175-0.657-0.044-1.237-0.657-1.752
			c-0.427-0.351-0.821-0.613-1.204-0.788c-0.373-0.176-0.822-0.329-1.342-0.482l1.911-3.772c0.811,0.202,1.664,0.515,2.584,0.97
			c0.909,0.448,1.764,0.985,2.546,1.643c1.457,1.221,2.218,2.491,2.284,3.805c0.055,1.325-0.63,2.842-2.059,4.557l-6.664,7.988
			l2.185,1.818L226.254,527.197z"/>
		<path fill="#FFFFFF" d="M211.524,488.512c1.052,0.104,2.245,0.482,3.576,1.145c1.331,0.657,2.574,1.544,3.718,2.655
			c2.393,2.316,3.46,4.71,3.219,7.179c-0.241,2.459-1.544,4.906-3.899,7.338c-2.524,2.606-5.043,3.953-7.556,4.057
			c-2.508,0.094-4.885-0.947-7.141-3.132c-0.745-0.728-1.385-1.527-1.905-2.415c-0.515-0.887-0.833-1.823-0.947-2.819
			c-0.109-0.991,0.038-2.031,0.454-3.127c0.411-1.095,1.167-2.223,2.278-3.361c0.394-0.411,0.854-0.838,1.369-1.271
			c0.504-0.416,1.062-0.844,1.654-1.26l8.893,8.613c1.149-1.298,1.741-2.557,1.763-3.751c0.033-1.193-0.603-2.426-1.916-3.685
			c-0.8-0.789-1.643-1.363-2.53-1.736c-0.887-0.383-1.609-0.597-2.201-0.674L211.524,488.512z M206.487,504.725
			c1.018,0.986,2.048,1.402,3.121,1.271c1.073-0.137,2.146-0.651,3.214-1.561l-5.514-5.35c-1.112,0.985-1.741,1.972-1.895,2.936
			C205.261,502.989,205.622,503.898,206.487,504.725z"/>
		<path fill="#FFFFFF" d="M196.987,491.156l-6.883-7.748l3.554-3.153l6.872,7.753L196.987,491.156z"/>
		<path fill="#FFFFFF" d="M180.675,482.116l-1.752-2.245l-0.909,0.718c-2.059,1.604-3.888,2.344-5.492,2.185
			c-1.599-0.143-3.039-1.035-4.325-2.684c-1.358-1.729-2.278-3.334-2.766-4.812l4.02-1.829c0.219,0.636,0.438,1.167,0.679,1.583
			c0.252,0.427,0.531,0.849,0.854,1.248c0.339,0.443,0.673,0.729,0.996,0.876c0.318,0.159,0.668,0.176,1.035,0.082
			c0.356-0.093,0.755-0.273,1.177-0.559c0.427-0.284,0.903-0.624,1.423-1.029l-2.792-3.581l3.576-2.787l2.798,3.57l12.682-9.916
			l3.296,4.232l-12.682,9.916l1.763,2.234L180.675,482.116z"/>
		<path fill="#FFFFFF" d="M177.833,461.604c-2.902,1.938-5.624,2.732-8.131,2.36c-2.513-0.367-4.632-1.846-6.34-4.402
			c-0.92-1.375-1.495-2.716-1.73-4.008c-0.241-1.304-0.187-2.536,0.164-3.729c0.34-1.193,0.964-2.327,1.862-3.405
			c0.898-1.085,2.026-2.076,3.373-2.979c2.913-1.938,5.618-2.727,8.12-2.37c2.502,0.366,4.616,1.828,6.33,4.38
			c0.915,1.38,1.495,2.705,1.73,4.003s0.192,2.552-0.147,3.751c-0.34,1.204-0.958,2.343-1.862,3.428
			C180.303,459.71,179.18,460.701,177.833,461.604z M174.761,457.005c0.756-0.509,1.402-1.04,1.955-1.604
			c0.548-0.558,0.975-1.149,1.265-1.74c0.295-0.586,0.427-1.205,0.394-1.824c-0.033-0.618-0.252-1.248-0.668-1.867
			c-0.777-1.16-1.785-1.746-3.017-1.746c-1.221-0.012-2.754,0.597-4.583,1.823c-1.583,1.051-2.683,2.168-3.307,3.34
			c-0.613,1.178-0.504,2.393,0.339,3.646c0.729,1.106,1.719,1.692,2.952,1.753C171.323,458.861,172.889,458.265,174.761,457.005z"/>
		<path fill="#FFFFFF" d="M151.534,439.193l10.3-5.597c1.473-0.799,2.448-1.55,2.902-2.261c0.466-0.701,0.422-1.566-0.126-2.579
			c-0.493-0.888-1.161-1.489-2.015-1.796c-0.854-0.302-1.752-0.389-2.678-0.264l-11.712,6.363l-2.557-4.698l12.616-6.872
			c0.991-0.536,1.933-1.111,2.836-1.73c0.903-0.618,1.687-1.221,2.36-1.84l1.928,3.549l-2.229,2.3l0.083,0.147
			c1.221,0.044,2.398,0.411,3.542,1.073c1.145,0.663,2.086,1.67,2.82,3.022c0.503,0.926,0.821,1.812,0.985,2.661
			c0.143,0.86,0.077,1.681-0.225,2.464c-0.29,0.783-0.838,1.566-1.637,2.327c-0.81,0.772-1.927,1.544-3.351,2.316l-11.269,6.127
			L151.534,439.193z"/>
		<path fill="#FFFFFF" d="M155.389,399.922l-10.771,4.633c-1.539,0.656-2.557,1.357-3.05,2.103
			c-0.493,0.728-0.504,1.626-0.055,2.683c0.405,0.942,1.018,1.621,1.84,2.016c0.821,0.416,1.697,0.591,2.623,0.52l12.282-5.283
			l2.119,4.933l-18.951,8.148l-1.687-3.91l2.262-1.647l-0.071-0.143c-1.051-0.23-2.092-0.701-3.11-1.402
			c-1.019-0.695-1.856-1.807-2.508-3.318c-0.405-0.941-0.635-1.828-0.701-2.672c-0.061-0.843,0.087-1.632,0.46-2.387
			c0.356-0.762,0.985-1.484,1.873-2.163c0.898-0.679,2.07-1.342,3.537-1.966L153.264,395L155.389,399.922z"/>
		<path fill="#FFFFFF" d="M138.294,373.464c1.101-0.355,2.201-0.723,3.285-1.111c1.095-0.378,2.278-0.893,3.537-1.528l1.183,3.647
			l-2.321,1.527l0.055,0.164c1.084,0.225,2.07,0.734,2.957,1.539c0.876,0.788,1.527,1.861,1.96,3.197
			c0.8,2.464,0.613,4.633-0.569,6.521c-1.183,1.884-3.504,3.384-6.954,4.513c-3.351,1.089-6.198,1.171-8.547,0.252
			c-2.354-0.915-4.008-2.826-4.956-5.767c-0.268-0.811-0.433-1.489-0.515-2.048c-0.077-0.553-0.099-1.122-0.055-1.719l-7.973,2.595
			l-1.653-5.108L138.294,373.464z M144.251,381.119c-0.317-0.986-0.821-1.703-1.489-2.114c-0.668-0.416-1.5-0.597-2.486-0.536
			l-8.334,2.699c-0.164,0.455-0.251,0.941-0.251,1.424c0,0.493,0.115,1.09,0.345,1.802c0.477,1.445,1.303,2.354,2.502,2.771
			c1.205,0.405,2.979,0.225,5.333-0.548c1.676-0.531,2.935-1.275,3.756-2.195C144.459,383.512,144.667,382.405,144.251,381.119z"/>
		<path fill="#FFFFFF" d="M125.393,356.216c-0.093,0.893-0.055,1.676,0.099,2.349c0.23,0.932,0.668,1.654,1.314,2.169
			c0.646,0.498,1.38,0.767,2.201,0.805l12.967-3.11l1.248,5.213l-20.062,4.813l-0.969-4.047l2.502-1.237l-0.038-0.164
			c-1.101-0.214-2.01-0.646-2.732-1.298c-0.723-0.646-1.205-1.489-1.457-2.524c-0.165-0.701-0.208-1.527-0.131-2.486
			L125.393,356.216z"/>
		<path fill="#FFFFFF" d="M129.166,340.49l3.055-1.254L132.178,339l-3.302-0.011l-11.91-1.227l-0.893-5.453l19.378,3.176
			c1.604,0.269,3.077,0.536,4.418,0.805c1.342,0.269,2.519,0.619,3.532,1.029c1.013,0.427,1.834,0.942,2.448,1.544
			c0.625,0.619,1.007,1.391,1.161,2.35c0.23,1.412,0.181,2.573-0.142,3.493l-4.392-0.29c0.093-0.433,0.11-0.844,0.039-1.254
			c-0.104-0.636-0.46-1.188-1.09-1.682c-0.619-0.503-1.648-0.782-3.083-0.854l-18.973,11.844l-1.041-6.357L129.166,340.49z"/>
		<path fill="#FFFFFF" d="M205.37,76.149c-0.69-0.75-1.178-1.566-1.489-2.415c-0.291-0.865-0.417-1.73-0.367-2.596
			c0.049-0.865,0.269-1.692,0.651-2.486c0.378-0.783,0.915-1.489,1.61-2.119c0.684-0.624,1.445-1.117,2.267-1.451
			c0.827-0.35,1.67-0.509,2.541-0.493c0.865,0.005,1.719,0.213,2.551,0.603c0.843,0.389,1.621,0.98,2.343,1.769
			c0.723,0.805,1.227,1.632,1.533,2.497c0.302,0.854,0.405,1.72,0.318,2.563c-0.071,0.854-0.318,1.675-0.739,2.458
			c-0.421,0.799-0.975,1.506-1.67,2.135c-0.69,0.625-1.44,1.101-2.245,1.424c-0.799,0.329-1.621,0.476-2.464,0.46
			c-0.854-0.011-1.692-0.208-2.519-0.586C206.859,77.529,206.087,76.943,205.37,76.149z M208.414,73.384
			c0.597,0.641,1.26,0.986,1.982,1.007c0.734,0.027,1.369-0.208,1.928-0.712c0.547-0.498,0.849-1.122,0.92-1.861
			c0.065-0.756-0.197-1.457-0.794-2.103c-0.586-0.652-1.265-0.986-2.043-1.024c-0.767-0.027-1.423,0.208-1.971,0.718
			c-0.548,0.493-0.838,1.117-0.865,1.873C207.544,72.021,207.823,72.722,208.414,73.384z"/>
		<path fill="#FFFFFF" d="M348.552,10.557c-0.181-0.909-0.187-1.791-0.017-2.601c0.175-0.821,0.498-1.566,0.958-2.217
			c0.455-0.641,1.024-1.199,1.708-1.665c0.679-0.455,1.435-0.772,2.267-0.937c0.865-0.175,1.708-0.197,2.513-0.06
			c0.81,0.131,1.549,0.411,2.207,0.821c0.663,0.421,1.232,0.975,1.703,1.692c0.477,0.701,0.811,1.528,1.007,2.513
			c0.197,0.964,0.208,1.856,0.033,2.683c-0.175,0.816-0.481,1.544-0.931,2.185c-0.449,0.635-1.029,1.172-1.719,1.604
			c-0.701,0.433-1.49,0.734-2.354,0.903c-0.833,0.165-1.654,0.187-2.448,0.055c-0.794-0.143-1.533-0.411-2.207-0.822
			c-0.668-0.41-1.243-0.969-1.719-1.664C349.083,12.364,348.754,11.526,348.552,10.557z"/>
	</g>
</g>
</svg>
