<?xml version="1.0" encoding="UTF-8" standalone="no"?>
<!-- Generator: Adobe Illustrator 16.0.0, SVG Export Plug-In . SVG Version: 6.00 Build 0)  -->

<svg
   xmlns:dc="http://purl.org/dc/elements/1.1/"
   xmlns:cc="http://creativecommons.org/ns#"
   xmlns:rdf="http://www.w3.org/1999/02/22-rdf-syntax-ns#"
   xmlns:svg="http://www.w3.org/2000/svg"
   xmlns="http://www.w3.org/2000/svg"
   xmlns:sodipodi="http://sodipodi.sourceforge.net/DTD/sodipodi-0.dtd"
   xmlns:inkscape="http://www.inkscape.org/namespaces/inkscape"
   version="1.1"
   id="Calque_1"
   x="0px"
   y="0px"
   width="332px"
   height="34.584px"
   viewBox="0 0 332 34.584"
   enable-background="new 0 0 332 34.584"
   xml:space="preserve"
   inkscape:version="0.48.4 r9939"
   sodipodi:docname="coin-2.svg"><metadata
     id="metadata19"><rdf:RDF><cc:Work
         rdf:about=""><dc:format>image/svg+xml</dc:format><dc:type
           rdf:resource="http://purl.org/dc/dcmitype/StillImage" /></cc:Work></rdf:RDF></metadata><defs
     id="defs17" /><sodipodi:namedview
     pagecolor="#ffffff"
     bordercolor="#666666"
     borderopacity="1"
     objecttolerance="10"
     gridtolerance="10"
     guidetolerance="10"
     inkscape:pageopacity="0"
     inkscape:pageshadow="2"
     inkscape:window-width="640"
     inkscape:window-height="480"
     id="namedview15"
     showgrid="false"
     inkscape:zoom="0.97590361"
     inkscape:cx="204.8349"
     inkscape:cy="21.776055"
     inkscape:window-x="495"
     inkscape:window-y="279"
     inkscape:window-maximized="0"
     inkscape:current-layer="Calque_1" /><g
     id="g3"><path
       fill="#666666"
       d="M329.021,22.288l-3.028-11.718C292.435,4.22,233.317,0,165.979,0C98.111,0,38.596,4.286,5.181,10.722   L2.674,22.328c36.893-6.013,96.277-9.917,163.288-9.917C232.909,12.411,292.121,16.286,329.021,22.288z"
       id="path7" /><path
       fill="#353535"
       d="M165.979,21.752c71.699,0,133.893,4.782,166.021,11.832l-2.979-11.296   c-36.899-6.002-96.111-9.877-163.059-9.877c-67.011,0-126.396,3.904-163.288,9.917L0,33.479   C32.267,26.487,94.639,21.752,165.979,21.752z"
       id="path9" /><polygon
       fill="#515151"
       points="5.181,10.722 10.572,21.122 8.976,31.772 0,33.479  "
       id="polygon11" /><polygon
       fill="#515151"
       points="325.992,10.57 321.102,21.084 322.855,31.772 332,33.584  "
       id="polygon13" /></g></svg>