<?xml version="1.0" encoding="utf-8"?>
<!-- Generator: Adobe Illustrator 16.0.0, SVG Export Plug-In . SVG Version: 6.00 Build 0)  -->
<!DOCTYPE svg PUBLIC "-//W3C//DTD SVG 1.1//EN" "http://www.w3.org/Graphics/SVG/1.1/DTD/svg11.dtd">
<svg version="1.1" id="Calque_1" xmlns="http://www.w3.org/2000/svg" xmlns:xlink="http://www.w3.org/1999/xlink" x="0px" y="0px"
	 width="72.137px" height="72.14px" viewBox="0 0 72.137 72.14" enable-background="new 0 0 72.137 72.14" xml:space="preserve">
<path fill="#FFFFFF" d="M59.549,0L12.46,0.086C5.565,0.097-0.013,5.695,0,12.591l0.083,47.086
	C0.096,66.573,5.694,72.151,12.59,72.14l13.599-0.023c-0.007-3.668-0.033-17.569-0.052-29.396l-5.993,0.011l-0.018-10.715
	l5.992-0.01l-0.013-6.935c-0.008-4.966,2.339-12.727,12.702-12.745l9.335,0.021l0.02,10.398c0,0-5.677,0.011-6.779,0.012
	c-1.104,0.003-2.67,0.556-2.666,2.918l0.011,6.308l9.606-0.017l-1.084,10.715l-8.504,0.017c0.021,11.695,0.045,25.709,0.053,29.395
	l20.879-0.037c6.896-0.012,12.474-5.611,12.461-12.507l-0.082-47.087C72.043,5.566,66.444-0.012,59.549,0z"/>
</svg>
