<?xml version="1.0" encoding="utf-8"?>
<!-- Generator: Adobe Illustrator 16.0.0, SVG Export Plug-In . SVG Version: 6.00 Build 0)  -->
<!DOCTYPE svg PUBLIC "-//W3C//DTD SVG 1.1//EN" "http://www.w3.org/Graphics/SVG/1.1/DTD/svg11.dtd">
<svg version="1.1" id="Calque_1" xmlns="http://www.w3.org/2000/svg" xmlns:xlink="http://www.w3.org/1999/xlink" x="0px" y="0px"
	 width="220.071px" height="294.717px" viewBox="0 0 220.071 294.717" enable-background="new 0 0 220.071 294.717"
	 xml:space="preserve">
<circle fill="#F5E462" cx="111.36" cy="104.983" r="104.983"/>
<path fill="#F5E462" d="M111.359,0C86.915,0,64.421,8.355,46.578,22.365c27.869,36.57,126.306,90.551,169.326,92.187
	c0.285-3.151,0.438-6.342,0.438-9.568C216.343,47.003,169.34,0,111.359,0z"/>
<path opacity="0.1" fill="#FFFFFF" d="M111.359,0C86.915,0,64.421,8.355,46.578,22.365c27.869,36.57,126.306,90.551,169.326,92.187
	c0.285-3.151,0.438-6.342,0.438-9.568C216.343,47.003,169.34,0,111.359,0z"/>
<g>
	<path fill="#666666" d="M192.962,289.812c16.881-2.515,27.109-5.806,27.109-9.406c0-7.903-49.265-14.311-110.036-14.311
		C49.264,266.096,0,272.503,0,280.406c0,3.601,10.229,6.892,27.109,9.406c20.171-3.007,49.842-4.906,82.926-4.906
		C143.119,284.906,172.791,286.806,192.962,289.812z"/>
	<path fill="#1A1A1A" d="M192.962,289.812c-20.171-3.007-49.843-4.906-82.926-4.906c-33.084,0-62.755,1.899-82.926,4.906
		c20.171,3.006,49.842,4.904,82.926,4.904C143.119,294.717,172.791,292.818,192.962,289.812z"/>
</g>
<path fill="none" stroke="#F7DA4D" stroke-width="7.9612" stroke-linecap="round" stroke-linejoin="round" stroke-miterlimit="10" d="
	M70.711,154.967c9.069,11.995,23.452,19.75,39.648,19.75s30.58-7.755,39.648-19.75"/>
</svg>
