<?xml version="1.0" encoding="UTF-8" standalone="no"?>
<!-- Created with Inkscape (http://www.inkscape.org/) -->

<svg
   xmlns:dc="http://purl.org/dc/elements/1.1/"
   xmlns:cc="http://creativecommons.org/ns#"
   xmlns:rdf="http://www.w3.org/1999/02/22-rdf-syntax-ns#"
   xmlns:svg="http://www.w3.org/2000/svg"
   xmlns="http://www.w3.org/2000/svg"
   version="1.1"
   width="840.45099"
   height="402.625"
   viewBox="0 0 840.451 402.625"
   id="Calque_1"
   xml:space="preserve"><metadata
     id="metadata2761"><rdf:RDF><cc:Work
         rdf:about=""><dc:format>image/svg+xml</dc:format><dc:type
           rdf:resource="http://purl.org/dc/dcmitype/StillImage" /><dc:title></dc:title></cc:Work></rdf:RDF></metadata><defs
     id="defs2759" />
       <path
           d="m 771.029,224.923 c -1.615,4.424 -3.699,8.102 -6.184,11.084 l -66.295,79.365 c 2.484,-2.981 4.547,-6.665 6.184,-11.084 m 9.082,-163.341 c 0.666,-0.8 1.371,-1.546 2.084,-2.226 m -2.084,2.226 c -6.77,8.106 -10.965,22.419 -12.656,42.669 -1.334,15.846 0.422,29.249 5.447,40.107 5.188,10.887 13.98,17.728 26.682,20.44 9.865,2.106 17.832,1.577 24.062,-1.909 2.812,-1.561 5.305,-3.635 7.494,-6.246 l -66.295,79.365 c -2.189,2.611 -4.699,4.684 -7.516,6.241 -6.209,3.49 -14.172,4.019 -24.059,1.909 -12.703,-2.713 -21.48,-9.55 -26.662,-20.438 -5.027,-10.857 -6.781,-24.258 -5.447,-40.104 1.688,-20.251 5.867,-34.565 12.654,-42.669 m 68.38,-81.591 c 7.836,-7.761 18.975,-10.014 33.285,-6.956 6.869,1.455 12.635,3.369 16.951,5.666 4.125,2.252 8.008,5.308 11.484,8.798 l -66.293,79.366 c -3.502,-3.494 -7.361,-6.547 -11.484,-8.801 -4.32,-2.295 -10.082,-4.209 -16.973,-5.667 -14.289,-3.054 -25.449,-0.806 -33.264,6.96 m 55.128,86.202 6.594,-78.694 66.293,-79.366 -6.592,78.694 m 50.893,7.944 c -0.861,10.279 -1.732,20.735 -2.264,31.258 M 755.627,312.228 771.965,117.41 838.279,38.049 821.922,232.867 M 771.965,117.41 721.311,106.608 787.604,27.243 838.279,38.049 z m -56.992,64.694 6.338,-75.496 66.293,-79.365 -6.34,75.498 m -66.291,79.363 c -5.143,-3.156 -10.131,-5.76 -15.172,-7.695 -5.236,-1.969 -11.734,-3.701 -19.85,-5.428 -29.141,-6.213 -51.936,-2.164 -68.418,12.17 -2.568,2.268 -4.984,4.758 -7.23,7.441 M 710.207,346.311 776.5,266.946 c 0.332,-0.386 0.648,-0.785 0.963,-1.183 l -66.297,79.364 c -0.312,0.4 -0.625,0.798 -0.959,1.184 z m 66.293,-79.365 -66.293,79.365 c -5.758,6.899 -13.607,11.944 -23.205,14.931 -10.172,3.322 -21.875,3.578 -35.096,0.755 -24.373,-5.197 -42.791,-17.015 -54.92,-35.22 -12.289,-18.223 -17.004,-43.766 -14.246,-76.463 2.229,-26.709 9.459,-47.243 21.564,-61.723 l 66.293,-79.364 c -12.105,14.482 -19.334,35.014 -21.564,61.723 -2.736,32.7 1.955,58.241 14.246,76.464 12.15,18.207 30.547,30.021 54.92,35.221 13.24,2.822 24.926,2.566 35.096,-0.759 9.619,-2.984 17.447,-8.031 23.205,-14.93 z m -63.744,78.522 -1.59,-0.341 66.297,-79.364 1.588,0.342 m 0,0 5.051,25.611 -66.315,79.362 -5.031,-25.61 m 5.031,25.61 66.315,-79.362 36.181,7.717 -66.312,79.359 z M 819.658,264.125 c -0.713,10.481 -0.42,22.213 0.625,35.309 l -66.312,79.361 c -1.047,-13.094 -1.318,-24.821 -0.607,-35.305 m 66.294,-79.365 c -0.713,10.481 -0.42,22.213 0.625,35.309 l -36.182,-7.717 -5.051,-25.611 -1.588,-0.34 c -5.842,7.5 -14.01,12.963 -24.17,16.111 -10.168,3.325 -21.854,3.582 -35.094,0.759 -24.373,-5.198 -42.773,-17.015 -54.92,-35.222 -12.291,-18.221 -16.984,-43.762 -14.248,-76.463 2.662,-31.674 12.324,-54.662 28.814,-69.163 16.463,-14.336 39.26,-18.384 68.398,-12.172 8.117,1.729 14.635,3.461 19.871,5.431 5.039,1.936 10.025,4.542 15.148,7.693 l 6.338,-75.498 50.676,10.806 -16.355,194.816 c -0.859,10.282 -1.731,20.738 -2.262,31.261 z m -48.629,-39.202 6.592,-78.694 c -3.479,-3.49 -7.359,-6.546 -11.482,-8.798 -4.318,-2.297 -10.084,-4.211 -16.953,-5.666 -14.311,-3.057 -25.449,-0.805 -33.285,6.956 -8.012,7.558 -12.875,22.649 -14.74,44.896 -1.334,15.846 0.422,29.249 5.447,40.106 5.188,10.889 13.98,17.729 26.682,20.441 9.865,2.106 17.832,1.578 24.062,-1.91 6.033,-3.337 10.644,-9.042 13.677,-17.331 M 753.365,343.49 c -0.713,10.483 -0.441,22.21 0.605,35.305 l -36.182,-7.717 -5.033,-25.609 -1.59,-0.34 c -5.838,7.503 -14.025,12.961 -24.164,16.113 -10.17,3.322 -21.875,3.578 -35.096,0.756 -24.371,-5.198 -42.789,-17.014 -54.918,-35.219 -12.291,-18.223 -17.006,-43.766 -14.248,-76.464 2.643,-31.678 12.324,-54.666 28.793,-69.164 16.484,-14.334 39.279,-18.384 68.42,-12.17 8.115,1.727 14.611,3.459 19.852,5.428 5.037,1.936 10.027,4.54 15.168,7.695 l 6.338,-75.497 50.656,10.802 -16.338,194.819 c -0.86,10.283 -1.733,20.737 -2.263,31.262 z m -48.631,-39.201 6.594,-78.693 c -3.502,-3.494 -7.361,-6.547 -11.484,-8.801 -4.32,-2.295 -10.082,-4.209 -16.973,-5.667 -14.289,-3.054 -25.449,-0.806 -33.264,6.96 -8.012,7.555 -12.879,22.646 -14.742,44.896 -1.334,15.847 0.422,29.247 5.449,40.104 5.182,10.887 13.957,17.725 26.66,20.438 9.885,2.109 17.852,1.581 24.061,-1.909 6.035,-3.336 10.649,-9.043 13.699,-17.328 m -543.661,-12.631 -25.453,-22.731 63.849,-23.736 25.44,22.726 z m -70.4,42.607 44.947,-65.338 63.849,-23.736 -44.951,65.342 m -27.716,-37.342 c -5.619,8.174 -8.744,15.016 -9.413,20.338 -0.594,5.25 1.875,10.41 7.371,15.315 4.781,4.276 9.773,6.36 14.986,6.282 3.183,-0.108 6.216,-0.669 9.129,-1.76 -19.143,7.123 -44.676,16.623 -63.834,23.742 -2.916,1.09 -5.947,1.649 -9.13,1.758 -5.211,0.078 -10.205,-2.004 -14.997,-6.291 -5.494,-4.903 -7.952,-10.057 -7.359,-15.305 0.67,-5.323 3.784,-12.174 9.413,-20.339 m 91.55,13.602 c -1.837,1.188 -3.714,2.126 -5.643,2.833 l -63.834,23.741 c 1.917,-0.715 3.793,-1.654 5.631,-2.842 m -27.705,-37.334 39.574,-57.549 63.846,-23.732 -39.585,57.541 m -24.261,-33.809 -25.442,-22.72 63.834,-23.741 25.454,22.729 z m -68.749,40.239 43.307,-62.959 63.834,-23.741 -43.306,62.959 m -75.348,45.459 c 2.182,-6.492 6.019,-13.736 11.512,-21.719 m 52.323,-2.021 c -2.316,6.529 -3.115,12.473 -2.699,17.882 0.427,5.419 2.193,10.548 5.146,15.415 m 0,10e-4 c 3.014,4.771 6.945,9.454 11.907,13.89 7.279,6.498 14.854,10.447 22.454,11.898 7.65,1.353 14.726,0.854 21.275,-1.59 l -63.835,23.739 c -6.56,2.435 -13.627,2.943 -21.284,1.583 -7.596,-1.437 -15.167,-5.393 -22.445,-11.891 -4.963,-4.435 -8.894,-9.119 -11.909,-13.889 m 56.435,24.911 -0.795,-0.714 63.834,-23.739 0.797,0.715 m 0,0 -5.765,19.004 -63.834,23.742 5.763,-19.008 m -5.763,19.008 63.834,-23.742 19.144,17.096 -63.837,23.738 z m 90.563,-23.286 c -3.122,5.806 -5.67,11.378 -7.585,16.64 l -63.835,23.738 c 1.915,-5.26 4.453,-10.838 7.575,-16.647 M 176.431,338.4 c -3.794,5.508 -7.259,11.145 -10.473,16.87 m -53.372,6.861 48.487,-70.473 63.836,-23.741 -48.478,70.483 m 48.478,-70.483 -48.478,70.484 c -3.794,5.506 -7.259,11.143 -10.473,16.869 -3.121,5.807 -5.67,11.378 -7.585,16.639 l -19.143,-17.096 5.763,-19.004 -0.796,-0.715 c -6.549,2.443 -13.625,2.942 -21.275,1.59 -7.6,-1.449 -15.175,-5.4 -22.454,-11.898 -4.962,-4.434 -8.893,-9.118 -11.907,-13.889 -2.952,-4.867 -4.719,-9.996 -5.146,-15.416 -0.415,-5.408 0.384,-11.352 2.699,-17.881 2.183,-6.496 6.017,-13.737 11.512,-21.72 l 43.307,-62.959 25.453,22.728 -39.586,57.543 c -5.618,8.173 -8.742,15.015 -9.413,20.339 -0.592,5.248 1.875,10.408 7.371,15.314 4.783,4.275 9.774,6.359 14.987,6.283 5.281,-0.186 10.136,-1.616 14.772,-4.594 l 44.951,-65.342 25.441,22.725 z m -63.836,23.741 -48.486,70.474 c -3.783,5.517 -7.25,11.153 -10.473,16.869 -3.122,5.808 -5.661,11.388 -7.575,16.647 l -19.143,-17.094 5.765,-19.006 -0.797,-0.715 c -6.561,2.435 -13.628,2.943 -21.285,1.584 -7.597,-1.438 -15.167,-5.393 -22.445,-11.893 -4.962,-4.433 -8.894,-9.119 -11.909,-13.888 -2.952,-4.867 -4.721,-9.997 -5.146,-15.417 -0.425,-5.416 0.374,-11.359 2.701,-17.881 2.182,-6.492 6.019,-13.736 11.512,-21.719 L 77.1,216.66 102.542,239.381 62.968,296.93 c -5.629,8.164 -8.743,15.016 -9.413,20.339 -0.593,5.249 1.866,10.401 7.359,15.306 4.792,4.285 9.785,6.369 14.997,6.291 5.28,-0.184 10.136,-1.617 14.761,-4.602 l 44.948,-65.338 25.453,22.732 z m 37.286,-230.007 -35.87,-1.502 34.295,-58.843 35.872,1.502 z m -35.87,-1.502 34.295,-58.843 14.516,171.371 -34.295,58.84 z m 14.516,171.368 34.295,-58.84 116.041,4.868 -34.294,58.841 z m 116.042,4.869 -2.538,-29.854 34.31,-58.841 2.522,29.854 z m -2.538,-29.854 -80.17,-3.366 34.296,-58.842 80.184,3.367 z m -80.17,-3.366 -11.98,-141.515 34.297,-58.843 11.979,141.516 z m 114.48,-55.475 2.522,29.854 L 211.3,172.677 196.784,1.306 l 35.872,1.502 11.979,141.516 z m -34.31,58.841 2.538,29.854 -116.042,-4.869 -14.516,-171.368 35.87,1.502 11.98,141.515 z M 515.85,331.931 c 0.562,0.021 1.176,0.086 1.824,0.151 0.65,0.063 1.254,0.089 1.867,0.152 0.607,0.063 1.053,0.081 1.334,0.093 3.475,0.145 6.256,-0.303 8.463,-1.336 2.209,-1.041 3.896,-2.473 5.072,-4.303 0.098,-0.158 0.197,-0.32 0.291,-0.484 -3.5,6.008 -8.17,14.01 -11.664,20.018 -0.098,0.164 -0.195,0.324 -0.297,0.484 -1.174,1.829 -2.861,3.262 -5.07,4.301 -2.207,1.035 -4.986,1.482 -8.461,1.336 -0.283,-0.01 -0.729,-0.027 -1.338,-0.092 -0.609,-0.062 -1.217,-0.089 -1.865,-0.152 -0.65,-0.065 -1.258,-0.129 -1.824,-0.152 m 32.463,-31.675 c -0.291,2.223 -0.936,4.208 -1.943,5.933 l -11.664,20.018 c 1.002,-1.723 1.648,-3.713 1.938,-5.932 m -20.794,11.656 c -0.57,-0.062 -0.977,-0.115 -1.227,-0.203 3.5,-6.004 8.17,-14.012 11.67,-20.017 0.248,0.087 0.656,0.14 1.225,0.204 m -12.895,19.813 -3.303,-39.042 11.664,-20.017 3.309,39.042 z m -0.338,-39.181 c -1.326,0.021 -2.33,0.056 -2.965,0.139 l 11.664,-20.017 c 0.639,-0.085 1.643,-0.119 2.971,-0.139 m 0,0 c 1.33,0.02 2.658,0.035 3.953,0.091 3.391,0.142 6.229,0.827 8.51,2.087 2.32,1.266 4.188,2.85 5.592,4.714 1.451,1.903 2.516,4.019 3.154,6.341 0.682,2.321 1.115,4.597 1.311,6.903 0.219,2.603 0.152,5.12 -0.162,7.591 m -1.366,0.96 c -1.436,-3.635 -3.477,-6.844 -6.162,-9.554 -2.645,-2.703 -6.012,-4.881 -10.051,-6.477 -4.041,-1.602 -8.83,-2.515 -14.324,-2.746 -1.252,-0.054 -2.668,-0.111 -4.24,-0.138 -1.574,-0.03 -3.184,-0.062 -4.84,-0.093 m 0,10e-4 c -1.689,0.006 -3.297,0.015 -4.865,0.061 -1.566,0.048 -2.971,0.102 -4.168,0.24 3.502,-6.006 8.17,-14.013 11.668,-20.018 1.195,-0.138 2.602,-0.192 4.17,-0.24 1.566,-0.045 3.176,-0.054 4.865,-0.059 m -20.703,20.317 11.668,-20.018 4.945,58.373 -11.67,20.018 z m 13.312,59.248 c -1.705,-0.145 -3.326,-0.289 -4.869,-0.428 -1.582,-0.144 -2.723,-0.303 -3.5,-0.447 l 11.67,-20.018 c 0.775,0.145 1.916,0.303 3.5,0.447 1.543,0.139 3.164,0.283 4.867,0.43 m -6.757,20.448 c -1.586,-0.142 -3.205,-0.246 -4.91,-0.432 m 47.003,-60.559 c 1.439,3.67 2.342,7.66 2.709,12.002 0.334,3.926 0.092,7.715 -0.648,11.334 -0.529,2.447 -1.389,4.693 -2.578,6.734 -3.502,6.006 -8.17,14.012 -11.668,20.018 1.189,-2.043 2.051,-4.287 2.574,-6.736 0.742,-3.618 0.984,-7.406 0.654,-11.333 -0.369,-4.344 -1.271,-8.329 -2.709,-12.002 m -18.761,20.958 c 1.578,0.104 2.834,0.193 3.805,0.233 5.98,0.252 10.957,-0.407 14.895,-1.933 3.895,-1.568 7.014,-3.694 9.277,-6.421 0.723,-0.882 1.365,-1.81 1.932,-2.784 l -11.668,20.018 c -0.568,0.974 -1.211,1.903 -1.93,2.783 -2.266,2.728 -5.385,4.854 -9.281,6.42 -3.938,1.526 -8.914,2.186 -14.893,1.934 -0.971,-0.041 -2.225,-0.129 -3.803,-0.234 m 42.093,-60.991 c 1.439,3.67 2.342,7.66 2.709,12.002 0.334,3.926 0.092,7.715 -0.648,11.334 -0.781,3.619 -2.283,6.789 -4.51,9.519 -2.264,2.727 -5.385,4.853 -9.279,6.421 -3.936,1.525 -8.912,2.185 -14.895,1.933 -0.969,-0.04 -2.225,-0.129 -3.803,-0.233 -1.586,-0.144 -3.203,-0.249 -4.908,-0.432 -1.705,-0.146 -3.324,-0.293 -4.865,-0.43 -1.586,-0.145 -2.727,-0.303 -3.504,-0.447 l -4.943,-58.373 c 1.195,-0.138 2.602,-0.193 4.168,-0.24 1.568,-0.045 3.176,-0.054 4.865,-0.059 1.654,0.029 3.266,0.061 4.84,0.09 1.572,0.027 2.986,0.088 4.234,0.139 5.498,0.232 10.289,1.145 14.33,2.745 4.037,1.599 7.404,3.773 10.049,6.478 2.684,2.708 4.729,5.919 6.16,9.553 z m -10.3,19.056 c 0.314,-2.47 0.381,-4.988 0.162,-7.591 -0.195,-2.306 -0.629,-4.582 -1.311,-6.904 -0.639,-2.32 -1.703,-4.436 -3.154,-6.34 -1.404,-1.865 -3.271,-3.447 -5.592,-4.713 -2.281,-1.262 -5.119,-1.945 -8.51,-2.088 -1.295,-0.056 -2.623,-0.07 -3.953,-0.091 -1.326,0.02 -2.332,0.055 -2.971,0.139 l 3.309,39.042 c 0.248,0.088 0.656,0.139 1.225,0.203 0.564,0.021 1.176,0.088 1.826,0.152 0.648,0.062 1.252,0.088 1.865,0.152 0.607,0.062 1.053,0.081 1.334,0.094 3.475,0.143 6.256,-0.303 8.463,-1.338 2.209,-1.04 3.896,-2.473 5.072,-4.302 1.174,-1.832 1.914,-3.982 2.235,-6.415 m -1.366,0.961 c 1.438,3.673 2.34,7.658 2.709,12.002 0.33,3.927 0.088,7.715 -0.654,11.333 -0.779,3.619 -2.281,6.79 -4.504,9.52 -2.268,2.728 -5.387,4.854 -9.281,6.42 -3.939,1.526 -8.914,2.186 -14.893,1.934 -0.973,-0.041 -2.227,-0.129 -3.805,-0.234 -1.584,-0.142 -3.205,-0.246 -4.91,-0.432 -1.705,-0.145 -3.324,-0.289 -4.869,-0.428 -1.58,-0.144 -2.723,-0.303 -3.5,-0.447 l -4.943,-58.373 c 1.197,-0.138 2.602,-0.192 4.168,-0.24 1.568,-0.047 3.176,-0.055 4.865,-0.061 1.656,0.031 3.266,0.062 4.84,0.093 1.572,0.026 2.988,0.085 4.24,0.138 5.494,0.231 10.283,1.145 14.324,2.746 4.039,1.596 7.406,3.773 10.051,6.477 2.684,2.708 4.727,5.918 6.162,9.552 z m -10.304,19.058 c 0.316,-2.473 0.385,-4.99 0.164,-7.594 -0.195,-2.306 -0.631,-4.581 -1.309,-6.902 -0.641,-2.322 -1.703,-4.436 -3.154,-6.342 -1.406,-1.865 -3.27,-3.446 -5.596,-4.713 -2.277,-1.26 -5.113,-1.943 -8.508,-2.088 -1.291,-0.055 -2.623,-0.068 -3.953,-0.09 -1.326,0.021 -2.332,0.055 -2.967,0.139 l 3.305,39.043 c 0.25,0.086 0.656,0.139 1.225,0.201 0.568,0.023 1.176,0.088 1.826,0.152 0.648,0.064 1.256,0.09 1.863,0.153 0.611,0.063 1.055,0.081 1.34,0.093 3.475,0.145 6.254,-0.302 8.461,-1.338 2.207,-1.039 3.896,-2.473 5.07,-4.301 1.172,-1.829 1.916,-3.982 2.233,-6.413 m -158.874,-21.627 -8.253,-19.741 71.326,-34.783 8.248,19.736 m -79.574,15.047 71.326,-34.783 17.916,-0.314 -71.327,34.786 z m 17.915,-0.311 71.327,-34.786 55.926,-25.942 -71.327,34.784 z m 55.926,-25.944 -35.33,-25.825 71.329,-34.787 35.328,25.828 z m -35.33,-25.825 71.329,-34.787 -55.632,29.352 -71.323,34.791 z m -55.626,29.356 -9.322,-1.873 71.327,-34.785 9.318,1.867 z m -9.322,-1.873 57.179,-103.482 71.322,-34.79 -57.174,103.487 z m 57.179,-103.482 -32.094,-23.459 71.32,-34.788 32.096,23.457 z m -32.094,-23.459 71.32,-34.788 -96.903,175.395 -71.329,34.785 z m -96.912,175.392 71.329,-34.785 32.094,23.458 -71.328,34.784 z m 32.095,23.457 28.687,-51.912 71.318,-34.787 -28.677,51.915 z m 28.687,-51.912 71.318,-34.787 8.615,6.291 -71.331,34.792 z m 8.602,6.296 71.331,-34.792 1.398,73.9 -71.329,34.785 z m 1.4,73.893 71.329,-34.785 36.678,26.805 -71.32,34.789 z m 107.054,-90.635 0.953,82.655 -71.32,34.789 -0.954,-82.656 m 35.596,21.062 -1.398,-73.9 -8.615,-6.291 -28.677,51.915 -32.094,-23.458 96.903,-175.395 32.096,23.457 -57.174,103.487 9.318,1.867 55.632,-29.352 35.328,25.828 -55.926,25.942 -17.916,0.314 8.248,19.736 0.953,82.655 z m -71.329,34.785 -1.4,-73.893 -8.602,-6.296 -28.687,51.912 -32.095,-23.457 96.912,-175.392 32.094,23.459 -57.179,103.482 9.322,1.873 55.626,-29.356 35.33,25.825 -55.926,25.944 -17.915,0.311 8.253,19.741 0.954,82.656 z M 106.903,69.991 89.471,87.675 51.76,109.679 69.193,91.994 m 0,0 10.245,-13.978 37.713,-22.003 -10.248,13.978 m -26.751,8.467 -0.714,-0.442 37.713,-22.003 0.712,0.442 M 75.981003,96.053001 80.152,78.458 m 33.543,-4.407 -2.875,26.92 -37.716,22.001 2.877,-26.919 M 73.104,122.972 51.76,109.679 89.471,87.675 110.82,100.971 z M 98.902,58.088 84.474,49.105 122.189,27.104 136.618,36.085 z M 84.474,49.105 122.189,27.104 39.883,105.625 2.171,127.629 z m -82.303,78.524 37.712,-22.004 19.536,12.16 -37.711,22.007 z m 19.537,12.163 17.762,-17.484 37.714,-22.002 -17.765,17.479 z m 17.762,-17.484 37.714,-22.002 30.729,19.127 -37.711,22.004 z m 30.732,19.129 37.711,-22.004 -2.233,27.149 -37.712,22.003 z m -2.234,27.148 37.712,-22.003 20.576,12.808 -37.712,22.005 z M 88.544,181.395 98.902,58.088 136.618,36.085 126.256,159.39 z m 48.074,-145.31 -10.362,123.305 -20.578,-12.808 2.234,-27.149 -30.729,-19.126 -17.765,17.48 -19.537,-12.161 82.307,-78.52 14.43,8.979 z m -47.147,51.59 21.349,13.295 2.875,-26.92 4.168,-17.596 -0.714,-0.443 L 106.903,69.99 89.471,87.675 M 98.902,58.088 88.544,181.395 67.967,168.587 70.201,141.438 39.47,122.308 21.708,139.792 2.171,127.629 84.473,49.105 98.902,58.088 z M 51.76,109.679 73.104,122.971 75.979,96.053 80.151,78.458 79.437,78.017 69.193,91.994 51.76,109.679 m 483.949,72.488 c -0.291,0.318 -0.59,0.628 -0.887,0.914 l 38.158,-42.434 c 0.307,-0.286 0.6,-0.596 0.887,-0.913 -11.447,12.725 -26.705,29.707 -38.158,42.433 z m 38.158,-42.434 -38.158,42.433 c 4.012,-4.464 6.74,-11.989 8.021,-22.621 2.363,-19.557 -2.832,-30.887 -15.494,-34.07 -5.115,-1.29 -9.424,-1.036 -12.914,0.656 -1.889,0.922 -3.592,2.249 -5.123,3.955 l 38.162,-42.433 c 1.533,-1.706 3.238,-3.032 5.127,-3.955 3.486,-1.692 7.793,-1.947 12.912,-0.656 12.66,3.183 17.857,14.514 15.494,34.071 -1.279,10.631 -4.007,18.158 -8.027,22.62 z m -63.121,-30.888 -0.875,-0.216 38.164,-42.433 0.869,0.214 m -39.033,42.219 5.926,-49.018 38.158,-42.434 -5.92,49.019 z m 5.926,-49.018 -27.727,-6.98 38.16,-42.432 27.725,6.978 z m -27.727,-6.98 38.16,-42.432 -16.732,138.531 -38.164,42.433 z m 116.912,29.902 c 5.748,10.135 7.592,23.68 5.512,40.917 -1.715,14.205 -5.951,25.084 -12.703,32.593 -11.451,12.73 -26.717,29.706 -38.166,42.434 6.752,-7.51 10.99,-18.389 12.705,-32.596 2.086,-17.235 0.236,-30.779 -5.512,-40.917 m 30.973,31.079 -38.166,42.434 c -1.967,2.188 -4.152,4.097 -6.551,5.713 -10.525,7.187 -24.045,8.655 -40.559,4.501 -9.08,-2.292 -17.307,-5.027 -24.67,-8.406 -7.363,-3.285 -12.869,-6.303 -16.512,-9.121 l 38.164,-42.433 c 3.639,2.818 9.145,5.835 16.512,9.122 7.357,3.377 15.592,6.117 24.668,8.405 16.518,4.153 30.035,2.686 40.555,-4.501 2.401,-1.618 4.584,-3.525 6.559,-5.714 z m 7.191,-73.51 c 5.748,10.135 7.592,23.68 5.512,40.917 -2.215,18.347 -8.637,31.144 -19.26,38.304 -10.521,7.187 -24.039,8.655 -40.555,4.501 -9.078,-2.289 -17.312,-5.028 -24.668,-8.404 -7.369,-3.286 -12.873,-6.304 -16.512,-9.122 l 16.732,-138.532 27.723,6.978 -5.92,49.019 0.869,0.215 c 3.387,-2.486 7.562,-4.112 12.432,-4.888 4.957,-0.663 10.189,-0.302 15.893,1.134 12.844,3.238 22.104,9.859 27.754,19.878 z m -32.002,58.113 c 4.502,-4.311 7.537,-12.139 8.916,-23.532 2.361,-19.557 -2.834,-30.888 -15.494,-34.071 -5.121,-1.291 -9.428,-1.036 -12.914,0.656 -3.498,1.704 -6.357,4.801 -8.666,9.088 l -5.381,44.57 c 2.184,1.693 4.508,3.05 7.072,4.074 2.648,1.143 5.424,2.029 8.324,2.762 7.532,1.896 13.655,0.671 18.143,-3.547 m -6.162,-15.68 c 5.746,10.137 7.598,23.681 5.512,40.917 -2.215,18.348 -8.639,31.146 -19.258,38.307 -10.523,7.187 -24.043,8.655 -40.559,4.501 -9.08,-2.292 -17.307,-5.027 -24.668,-8.406 -7.363,-3.285 -12.869,-6.303 -16.512,-9.121 l 16.734,-138.532 27.727,6.98 -5.926,49.018 0.875,0.215 c 3.379,-2.488 7.557,-4.11 12.432,-4.889 4.955,-0.662 10.191,-0.301 15.891,1.136 12.844,3.235 22.1,9.855 27.752,19.874 z m -31.996,58.114 c 4.498,-4.311 7.531,-12.138 8.908,-23.534 2.363,-19.557 -2.832,-30.887 -15.494,-34.07 -5.115,-1.29 -9.424,-1.036 -12.914,0.656 -3.492,1.704 -6.357,4.8 -8.664,9.088 l -5.379,44.571 c 2.18,1.692 4.504,3.049 7.068,4.072 2.65,1.145 5.426,2.027 8.324,2.763 7.54,1.898 13.655,0.671 18.151,-3.546"
           id="SVGID_114_"
           style="fill:none;stroke:#49e4a9;stroke-opacity:0.2;stroke-width:0.8;stroke-miterlimit:10;stroke-dasharray:none" /></svg>
