<?xml version="1.0" encoding="utf-8"?>
<!-- Generator: Adobe Illustrator 16.0.0, SVG Export Plug-In . SVG Version: 6.00 Build 0)  -->
<!DOCTYPE svg PUBLIC "-//W3C//DTD SVG 1.1//EN" "http://www.w3.org/Graphics/SVG/1.1/DTD/svg11.dtd">
<svg version="1.1" id="Calque_1" xmlns="http://www.w3.org/2000/svg" xmlns:xlink="http://www.w3.org/1999/xlink" x="0px" y="0px"
	 width="176.692px" height="212.586px" viewBox="0 0 176.692 212.586" enable-background="new 0 0 176.692 212.586"
	 xml:space="preserve">
<path fill="#FFFFFF" d="M142.449,13.858c9.342,6.332,17.516,15.896,24.541,28.651c6.367,11.551,9.605,22.005,9.697,31.376
	c0.117,9.361-1.965,17.747-6.225,25.14c-4.283,7.404-10.303,13.706-18.086,18.964c-7.764,5.229-16.48,9.432-26.148,12.607
	c-0.934,0.306-2.439,0.798-4.471,1.468c-2.062,0.678-4.221,1.33-6.51,1.969c-2.246,0.654-4.537,1.241-6.762,1.776
	c-2.24,0.515-3.865,0.847-4.883,0.994l34.844,63.229l-38.227,12.554L0,30.709c7.041-3.962,15.033-7.87,24.006-11.766
	c8.964-3.861,18.084-7.333,27.377-10.382c9.673-3.178,19.803-5.614,30.396-7.335c10.593-1.72,21.019-1.63,31.294,0.268
	C123.345,3.398,133.148,7.513,142.449,13.858z M132.138,72.862c0.021-4.967-1.857-10.851-5.617-17.679
	c-3.176-5.76-6.934-10.163-11.23-13.217c-4.299-3.022-8.91-5.081-13.773-6.157c-4.895-1.073-9.906-1.295-15.036-0.644
	c-5.129,0.654-10.106,1.784-14.954,3.379c-3.723,1.219-7.17,2.492-10.394,3.858c-3.195,1.357-5.737,2.555-7.578,3.576l32.825,59.569
	c0.857-0.055,2.057-0.258,3.642-0.552c1.598-0.331,3.256-0.707,4.953-1.18c1.734-0.461,3.391-0.951,4.977-1.468
	c1.557-0.512,2.736-0.901,3.488-1.149c5.027-1.646,9.752-3.73,14.193-6.22c4.439-2.488,7.975-5.548,10.592-9.196
	C130.816,82.144,132.119,77.836,132.138,72.862"/>
</svg>
