<?xml version="1.0" encoding="UTF-8" standalone="no"?>
<!-- Created with Inkscape (http://www.inkscape.org/) -->

<svg
   xmlns:dc="http://purl.org/dc/elements/1.1/"
   xmlns:cc="http://creativecommons.org/ns#"
   xmlns:rdf="http://www.w3.org/1999/02/22-rdf-syntax-ns#"
   xmlns:svg="http://www.w3.org/2000/svg"
   xmlns="http://www.w3.org/2000/svg"
   version="1.1"
   width="495.65601"
   height="396.922"
   viewBox="0 0 495.656 396.922"
   id="Calque_1"
   xml:space="preserve"><metadata
     id="metadata19"><rdf:RDF><cc:Work
         rdf:about=""><dc:format>image/svg+xml</dc:format><dc:type
           rdf:resource="http://purl.org/dc/dcmitype/StillImage" /><dc:title></dc:title></cc:Work></rdf:RDF></metadata><defs
     id="defs17" /><path
     d="M 479.402,0.032 0,0 V 14.073 32.518 L 463.129,32.557 463.1,364.399 0,364.368 v 16.708 15.803 l 479.374,0.043 c 8.967,-0.009 16.257,-7.275 16.26,-16.258 L 495.656,16.285 C 495.647,7.302 488.369,0.032 479.402,0.032 z"
     id="path5"
     style="fill:#cccccc" /><path
     d="M 409.984,72.272 310.98,72.268 c -4.477,0.002 -8.119,3.646 -8.118,8.131 l -0.016,125.999 c -0.003,4.489 3.64,8.136 8.134,8.134 l 99.005,0.011 c 4.471,-0.011 8.106,-3.645 8.108,-8.127 l 0.011,-126.008 c -0.008,-4.485 -3.639,-8.134 -8.12,-8.136 z"
     id="path7"
     style="fill:#ff725e" /><path
     d="m 0.187,177.536 62.059,0.007 c 6.718,-0.001 12.185,-5.459 12.193,-12.2 -10e-4,-6.74 -5.466,-12.192 -12.191,-12.193 L 0.197,153.145 c -0.066,0 -0.13,0.009 -0.197,0.01 v 24.371 c 0.062,10e-4 0.124,0.01 0.187,0.01 z"
     id="path9"
     style="fill:#cccccc" /><path
     d="m 0.184,242.581 181.985,0.013 c 6.723,-0.001 12.181,-5.457 12.189,-12.184 0.008,-6.759 -5.457,-12.216 -12.181,-12.206 L 0.178,218.173 c -0.06,0 -0.118,0.008 -0.178,0.01 v 24.389 c 0.062,0 0.122,0.009 0.184,0.009 z"
     id="path11"
     style="fill:#cccccc" /><path
     d="m 0.167,307.621 181.997,0.019 c 6.727,-10e-4 12.185,-5.457 12.19,-12.197 0.013,-6.739 -5.455,-12.203 -12.179,-12.193 L 0.177,283.235 c -0.06,0 -0.117,0.008 -0.177,0.009 v 24.368 c 0.056,10e-4 0.11,0.009 0.167,0.009 z"
     id="path13"
     style="fill:#cccccc" /></svg>