<?xml version="1.0" encoding="utf-8"?>
<!-- Generator: Adobe Illustrator 16.0.0, SVG Export Plug-In . SVG Version: 6.00 Build 0)  -->
<!DOCTYPE svg PUBLIC "-//W3C//DTD SVG 1.1//EN" "http://www.w3.org/Graphics/SVG/1.1/DTD/svg11.dtd">
<svg version="1.1" id="Calque_1" xmlns="http://www.w3.org/2000/svg" xmlns:xlink="http://www.w3.org/1999/xlink" x="0px" y="0px"
	 width="72.983px" height="49.346px" viewBox="0 0 72.983 49.346" enable-background="new 0 0 72.983 49.346" xml:space="preserve">
<g>
	<g>
		<path fill="#FFFFFF" d="M70.979,0.245L2.181,0c-1.112-0.005-2.016,0.892-2.02,2.004L0,47.082
			c-0.004,1.111,0.894,2.014,2.006,2.018l68.799,0.246c1.109,0.003,2.015-0.893,2.019-2.004l0.16-45.079
			C72.986,1.151,72.089,0.249,70.979,0.245z M68.806,45.315L4.03,45.085L4.177,4.03l64.775,0.231L68.806,45.315z"/>
		<path fill="#FFFFFF" d="M50.051,26.709l12.248,0.044c0.554,0.001,1.005-0.447,1.007-1.002l0.056-15.589
			c0.001-0.555-0.446-1.008-1.001-1.01L50.112,9.11c-0.554-0.003-1.006,0.447-1.008,1.001l-0.057,15.588
			C49.046,26.255,49.495,26.707,50.051,26.709z"/>
		<path fill="#FFFFFF" d="M11.617,21.998l7.678,0.027c0.831,0.003,1.51-0.669,1.514-1.503c0.003-0.834-0.671-1.511-1.503-1.514
			l-7.677-0.027c-0.836-0.003-1.514,0.669-1.516,1.503C10.109,21.318,10.783,21.995,11.617,21.998z"/>
		<path fill="#FFFFFF" d="M11.589,30.045l22.514,0.08c0.832,0.003,1.51-0.67,1.514-1.502c0.004-0.836-0.67-1.514-1.502-1.516
			l-22.516-0.082c-0.834-0.002-1.512,0.671-1.514,1.506C10.081,29.364,10.753,30.041,11.589,30.045z"/>
		<path fill="#FFFFFF" d="M11.559,38.091l22.516,0.081c0.832,0.003,1.51-0.67,1.514-1.504c0.004-0.833-0.67-1.512-1.502-1.514
			l-22.516-0.08c-0.834-0.003-1.512,0.67-1.516,1.502C10.053,37.41,10.726,38.088,11.559,38.091z"/>
	</g>
</g>
</svg>
