<?xml version="1.0" encoding="UTF-8" standalone="no"?>
<!-- Created with Inkscape (http://www.inkscape.org/) -->

<svg
   xmlns:dc="http://purl.org/dc/elements/1.1/"
   xmlns:cc="http://creativecommons.org/ns#"
   xmlns:rdf="http://www.w3.org/1999/02/22-rdf-syntax-ns#"
   xmlns:svg="http://www.w3.org/2000/svg"
   xmlns="http://www.w3.org/2000/svg"
   xmlns:sodipodi="http://sodipodi.sourceforge.net/DTD/sodipodi-0.dtd"
   xmlns:inkscape="http://www.inkscape.org/namespaces/inkscape"
   id="svg2"
   version="1.1"
   inkscape:version="0.48.4 r9939"
   width="405"
   height="652.5"
   xml:space="preserve"
   sodipodi:docname="paypal.svg"
   inkscape:export-filename="/home/louisremi/Workspace/powebsite/app/images/paypal.png"
   inkscape:export-xdpi="90"
   inkscape:export-ydpi="90"><metadata
     id="metadata8"><rdf:RDF><cc:Work
         rdf:about=""><dc:format>image/svg+xml</dc:format><dc:type
           rdf:resource="http://purl.org/dc/dcmitype/StillImage" /><dc:title></dc:title></cc:Work></rdf:RDF></metadata><defs
     id="defs6"><clipPath
       clipPathUnits="userSpaceOnUse"
       id="clipPath20"><path
         d="M 0,0 324,0 324,522 0,522 0,0 z"
         id="path22" /></clipPath><clipPath
       clipPathUnits="userSpaceOnUse"
       id="clipPath32"><path
         d="m 58.5,124.333 146.621,0 0,41.627 -146.621,0 0,-41.627 z"
         id="path34" /></clipPath><clipPath
       clipPathUnits="userSpaceOnUse"
       id="clipPath90"><path
         d="M 0,0 324,0 324,522 0,522 0,0 z"
         id="path92" /></clipPath><clipPath
       clipPathUnits="userSpaceOnUse"
       id="clipPath110"><path
         d="M 0,0 324,0 324,522 0,522 0,0 z"
         id="path112" /></clipPath><clipPath
       clipPathUnits="userSpaceOnUse"
       id="clipPath132"><path
         d="M 0,0 324,0 324,522 0,522 0,0 z"
         id="path134" /></clipPath><clipPath
       clipPathUnits="userSpaceOnUse"
       id="clipPath156"><path
         d="M 0,0 324,0 324,522 0,522 0,0 z"
         id="path158" /></clipPath><clipPath
       clipPathUnits="userSpaceOnUse"
       id="clipPath204"><path
         d="M 0,0 324,0 324,522 0,522 0,0 z"
         id="path206" /></clipPath><clipPath
       clipPathUnits="userSpaceOnUse"
       id="clipPath250"><path
         d="M 0,0 324,0 324,522 0,522 0,0 z"
         id="path252" /></clipPath><clipPath
       clipPathUnits="userSpaceOnUse"
       id="clipPath264"><path
         d="M 0,0 324,0 324,522 0,522 0,0 z"
         id="path266" /></clipPath><clipPath
       clipPathUnits="userSpaceOnUse"
       id="clipPath284"><path
         d="M 0,0 324,0 324,522 0,522 0,0 z"
         id="path286" /></clipPath><clipPath
       clipPathUnits="userSpaceOnUse"
       id="clipPath300"><path
         d="M 0,0 324,0 324,522 0,522 0,0 z"
         id="path302" /></clipPath><clipPath
       clipPathUnits="userSpaceOnUse"
       id="clipPath328"><path
         d="M 0,0 324,0 324,522 0,522 0,0 z"
         id="path330" /></clipPath><clipPath
       clipPathUnits="userSpaceOnUse"
       id="clipPath352"><path
         d="M 0,0 324,0 324,522 0,522 0,0 z"
         id="path354" /></clipPath><clipPath
       clipPathUnits="userSpaceOnUse"
       id="clipPath364"><path
         d="m 115.124,399.344 c 0,-2.289 1.857,-4.15 4.152,-4.15 l 0,0 c 2.292,0 4.147,1.861 4.147,4.15 l 0,0 c 0,2.294 -1.855,4.156 -4.147,4.156 l 0,0 c -2.295,0 -4.152,-1.862 -4.152,-4.156"
         id="path366" /></clipPath><radialGradient
       fx="0"
       fy="0"
       cx="0"
       cy="0"
       r="1"
       gradientUnits="userSpaceOnUse"
       gradientTransform="matrix(4.1514435,0,0,-4.1544189,119.27295,399.34705)"
       spreadMethod="pad"
       id="radialGradient372"><stop
         style="stop-opacity:1;stop-color:#ffffff"
         offset="0"
         id="stop374" /><stop
         style="stop-opacity:1;stop-color:#f2541b"
         offset="1"
         id="stop376" /></radialGradient><clipPath
       clipPathUnits="userSpaceOnUse"
       id="clipPath390"><path
         d="m 233.717,473.184 0,-35.125 35.709,0 0,11.921 c 0.138,0.204 0.211,0.466 0.211,0.787 l 0,0 c 0,0.367 -0.073,0.595 -0.211,0.785 l 0,0 0,21.632 -35.709,0 z"
         id="path392" /></clipPath><radialGradient
       fx="0"
       fy="0"
       cx="0"
       cy="0"
       r="1"
       gradientUnits="userSpaceOnUse"
       gradientTransform="matrix(33.479538,0,0,-33.479538,240.02631,467.05096)"
       spreadMethod="pad"
       id="radialGradient398"><stop
         style="stop-opacity:1;stop-color:#a6daf5"
         offset="0"
         id="stop400" /><stop
         style="stop-opacity:1;stop-color:#a1d8f5"
         offset="0.071106"
         id="stop402" /><stop
         style="stop-opacity:1;stop-color:#94d5f4"
         offset="0.157501"
         id="stop404" /><stop
         style="stop-opacity:1;stop-color:#80cdf2"
         offset="0.251602"
         id="stop406" /><stop
         style="stop-opacity:1;stop-color:#67c1ee"
         offset="0.351395"
         id="stop408" /><stop
         style="stop-opacity:1;stop-color:#50b0e7"
         offset="0.454605"
         id="stop410" /><stop
         style="stop-opacity:1;stop-color:#4ca9e3"
         offset="0.5"
         id="stop412" /><stop
         style="stop-opacity:1;stop-color:#4174c2"
         offset="1"
         id="stop414" /></radialGradient><clipPath
       clipPathUnits="userSpaceOnUse"
       id="clipPath422"><path
         d="M 0,0 324,0 324,522 0,522 0,0 z"
         id="path424" /></clipPath><clipPath
       clipPathUnits="userSpaceOnUse"
       id="clipPath442"><path
         d="M 0,0 324,0 324,522 0,522 0,0 z"
         id="path444" /></clipPath><clipPath
       clipPathUnits="userSpaceOnUse"
       id="clipPath502"><path
         d="M 0,0 324,0 324,522 0,522 0,0 z"
         id="path504" /></clipPath><clipPath
       clipPathUnits="userSpaceOnUse"
       id="clipPath32-6"><path
         inkscape:connector-curvature="0"
         d="m 58.5,124.333 146.621,0 0,41.627 -146.621,0 0,-41.627 z"
         id="path34-2" /></clipPath></defs><sodipodi:namedview
     pagecolor="#ffffff"
     bordercolor="#666666"
     borderopacity="1"
     objecttolerance="10"
     gridtolerance="10"
     guidetolerance="10"
     inkscape:pageopacity="0"
     inkscape:pageshadow="2"
     inkscape:window-width="1920"
     inkscape:window-height="1176"
     id="namedview4"
     showgrid="false"
     inkscape:zoom="0.511501"
     inkscape:cx="394.42666"
     inkscape:cy="174.15073"
     inkscape:window-x="0"
     inkscape:window-y="24"
     inkscape:window-maximized="1"
     inkscape:current-layer="svg2" /><circle
     transform="matrix(0.62224328,0,0,0.62224328,113.69219,237.44188)"
     d="m 285.444,142.72301 c 0,78.82318 -63.89882,142.722 -142.722,142.722 C 63.898816,285.44501 0,221.54619 0,142.72301 0,63.899823 63.898816,0.00100708 142.722,0.00100708 c 78.82318,0 142.722,63.89881592 142.722,142.72200292 z"
     style="opacity:1;fill:#f5e462"
     sodipodi:ry="142.722"
     sodipodi:rx="142.722"
     sodipodi:cy="142.72301"
     sodipodi:cx="142.722"
     cx="142.722"
     cy="142.72301"
     r="142.722"
     id="circle3700" /><path
     style="opacity:0.2;fill:#ffffff"
     inkscape:connector-curvature="0"
     d="m 202.5,237.44188 c -20.67901,0 -39.70659,7.06806 -54.80034,18.91931 23.57493,30.93607 106.84477,76.59939 143.23667,77.98388 0.24143,-2.66693 0.37148,-5.3656 0.37148,-8.09476 0,-49.0477 -39.76135,-88.80843 -88.80781,-88.80843 z"
     id="path3702" /><path
     style="opacity:1;fill:none;stroke:#f7da4d;stroke-width:6.73460150000000013;stroke-linecap:round;stroke-linejoin:round;stroke-miterlimit:10"
     inkscape:connector-curvature="0"
     stroke-miterlimit="10"
     d="m 168.11421,376.53236 c 7.67226,10.14693 19.83836,16.70724 33.53954,16.70724 13.70117,0 25.8679,-6.56031 33.53953,-16.70724"
     id="path3704" /><g
     transform="matrix(0.62224328,0,0,-0.62224328,121.13807,410.95009)"
     id="g3807"><g
       transform="translate(132.5365,157.204)"
       id="g44"><path
         id="path46"
         style="fill:#104076;fill-opacity:1;fill-rule:nonzero;stroke:none"
         d="m 0,0 c -0.934,0 -2.159,-0.756 -2.739,-1.67 0,0 -6.061,-10.43 -6.674,-11.501 -0.334,-0.576 -0.672,-0.21 -0.728,0.004 -0.045,0.26 -1.936,11.52 -1.936,11.52 -0.213,0.922 -1.175,1.712 -2.379,1.71 l -3.896,-0.008 c -0.938,0 -1.524,-0.751 -1.315,-1.66 0,0 2.976,-16.693 3.557,-20.662 0.291,-2.195 -0.029,-2.584 -0.029,-2.584 l -3.674,-6.359 c -0.565,-0.912 -0.257,-1.661 0.678,-1.661 l 4.514,0.002 c 0.935,0 2.173,0.747 2.729,1.662 L 5.103,-2.488 c 0,0 1.662,2.509 0.129,2.488"
         inkscape:connector-curvature="0" /></g><path
       id="path50"
       style="fill:#104076;fill-opacity:1;fill-rule:nonzero;stroke:none"
       d="m 0,0 c -0.542,1.058 -1.354,1.916 -2.391,2.564 -1.075,0.664 -2.326,1.121 -3.784,1.397 -1.466,0.263 -3.18,0.392 -5.145,0.409 l -9.1,-0.005 c -0.947,-0.012 -1.874,-0.754 -2.092,-1.663 l -6.089,-26.446 c -0.211,-0.911 0.379,-1.666 1.321,-1.666 l 4.36,0 c 0.942,0 1.877,0.736 2.088,1.666 l 1.456,6.243 c 0.2,0.905 1.132,1.654 2.077,1.654 l 1.246,0 c 5.332,0.006 9.468,1.095 12.44,3.278 2.968,2.179 4.452,5.068 4.445,8.639 C 0.839,-2.36 0.567,-1.048 0,0 m -9.413,-8.715 c -1.315,-0.961 -3.136,-1.443 -5.502,-1.443 l -1.068,0 c -0.943,0 -1.537,0.746 -1.329,1.664 L -16,-2.839 c 0.199,0.911 1.141,1.668 2.082,1.658 l 1.426,0.01 c 1.668,0 2.934,-0.285 3.789,-0.853 0.842,-0.552 1.27,-1.423 1.255,-2.596 0.024,-1.765 -0.644,-3.132 -1.965,-4.095"
       transform="translate(87.3122,160.2283)"
       inkscape:connector-curvature="0" /><g
       transform="translate(100.6118,140.0441)"
       id="g52"><path
         id="path54"
         style="fill:#104076;fill-opacity:1;fill-rule:nonzero;stroke:none"
         d="m 0,0 c -0.54,-0.342 -1.111,-0.633 -1.711,-0.883 -0.805,-0.32 -1.571,-0.494 -2.275,-0.494 -1.081,0 -1.915,0.155 -2.479,0.481 -0.563,0.313 -0.86,0.849 -0.851,1.627 0,0.888 0.208,1.584 0.634,2.127 0.43,0.524 1.067,0.943 1.859,1.257 0.788,0.268 1.759,0.486 2.874,0.644 0.995,0.125 2.962,0.351 3.212,0.354 0.25,10e-4 0.418,0.141 0.306,-0.53 C 1.52,4.293 0.953,1.961 0.691,0.905 0.614,0.583 0.191,0.121 0,0 m 7.715,16.374 c -1.656,0.922 -4.246,1.389 -7.787,1.389 -1.754,0 -3.513,-0.139 -5.281,-0.414 -1.299,-0.197 -1.43,-0.23 -2.236,-0.406 -1.658,-0.362 -1.914,-2.02 -1.914,-2.02 l -0.532,-2.191 c -0.301,-1.4 0.497,-1.342 0.851,-1.233 0.722,0.219 1.117,0.435 2.594,0.771 1.409,0.318 2.902,0.558 4.09,0.549 1.746,0 3.072,-0.191 3.953,-0.559 C 2.337,11.876 2.772,11.219 2.772,10.282 2.777,10.058 2.782,9.848 2.703,9.666 2.63,9.493 2.488,9.328 2.071,9.273 -0.415,9.122 -2.203,8.895 -4.358,8.581 -6.482,8.283 -8.339,7.77 -9.893,7.061 -11.55,6.326 -12.787,5.341 -13.64,4.097 c -0.835,-1.252 -1.252,-2.767 -1.253,-4.552 0,-1.685 0.607,-3.062 1.778,-4.13 1.189,-1.056 2.731,-1.576 4.599,-1.576 1.168,0.007 2.08,0.094 2.737,0.257 0.647,0.163 1.355,0.394 2.099,0.718 0.558,0.234 1.159,0.571 1.795,0.994 0.635,0.423 1.079,0.725 1.646,1.095 l 0.017,-0.036 -0.159,-0.7 c -0.001,-0.008 -0.011,-0.01 -0.011,-0.021 l 0.008,-0.01 c -0.182,-0.846 0.325,-1.548 1.162,-1.63 l 0.01,-0.016 0.074,0 0.003,-0.005 c 0.557,0 2.464,0.003 3.354,0.005 l 0.623,0 c 0.041,0 0.047,0.014 0.06,0.022 0.857,0.11 1.673,0.804 1.87,1.634 L 9.955,9.892 c 0.072,0.322 0.13,0.695 0.163,1.125 0.042,0.435 0.089,0.791 0.076,1.048 0.008,1.947 -0.829,3.385 -2.479,4.309"
         inkscape:connector-curvature="0" /></g><g
       transform="translate(178.741,140.123)"
       id="g56"><path
         id="path58"
         style="fill:#1476c6;fill-opacity:1;fill-rule:nonzero;stroke:none"
         d="m 0,0 c -0.542,-0.342 -1.112,-0.63 -1.711,-0.881 -0.804,-0.323 -1.567,-0.494 -2.274,-0.494 -1.086,0 -1.916,0.153 -2.478,0.481 -0.566,0.311 -0.863,0.852 -0.852,1.625 0,0.894 0.205,1.585 0.633,2.129 0.428,0.522 1.07,0.942 1.859,1.256 0.788,0.267 1.755,0.487 2.875,0.644 0.994,0.125 2.96,0.353 3.21,0.354 C 1.514,5.117 1.68,5.255 1.569,4.585 1.52,4.294 0.952,1.964 0.691,0.904 0.615,0.589 0.192,0.126 0,0 m 7.715,16.375 c -1.656,0.924 -4.247,1.391 -7.788,1.391 -1.754,0 -3.515,-0.141 -5.282,-0.414 -1.295,-0.2 -1.43,-0.233 -2.234,-0.408 -1.658,-0.361 -1.913,-2.02 -1.913,-2.02 l -0.532,-2.19 c -0.304,-1.399 0.495,-1.341 0.85,-1.232 0.722,0.218 1.117,0.433 2.592,0.769 1.411,0.321 2.904,0.559 4.092,0.55 1.746,0 3.071,-0.191 3.953,-0.559 0.884,-0.385 1.32,-1.042 1.32,-1.977 C 2.776,10.062 2.784,9.849 2.703,9.667 2.629,9.495 2.489,9.329 2.074,9.274 -0.418,9.125 -2.205,8.898 -4.358,8.584 -6.479,8.285 -8.34,7.772 -9.891,7.063 c -1.656,-0.734 -2.897,-1.717 -3.752,-2.964 -0.83,-1.251 -1.249,-2.766 -1.25,-4.551 0,-1.688 0.607,-3.062 1.778,-4.133 1.189,-1.051 2.732,-1.574 4.601,-1.574 1.167,0.008 2.079,0.092 2.734,0.255 0.647,0.163 1.356,0.397 2.103,0.721 0.557,0.231 1.156,0.57 1.792,0.993 0.637,0.426 1.078,0.726 1.643,1.093 l 0.021,-0.031 -0.16,-0.705 c 0,-0.005 -0.011,-0.01 -0.011,-0.015 l 0.006,-0.014 C -0.568,-4.705 -0.06,-5.41 0.778,-5.494 l 0.01,-0.013 0.074,0 0.003,-0.003 c 0.557,0 2.463,0 3.354,0.003 l 0.623,0 c 0.039,0 0.045,0.013 0.06,0.021 0.857,0.105 1.678,0.802 1.87,1.638 L 9.955,9.893 c 0.073,0.323 0.131,0.696 0.165,1.126 0.04,0.434 0.087,0.791 0.071,1.049 0.011,1.945 -0.825,3.383 -2.476,4.307"
         inkscape:connector-curvature="0" /></g><g
       transform="translate(165.4243,160.2334)"
       id="g60"><path
         id="path62"
         style="fill:#1476c6;fill-opacity:1;fill-rule:nonzero;stroke:none"
         d="m 0,0 c -0.544,1.057 -1.364,1.907 -2.4,2.571 -1.064,0.661 -2.329,1.121 -3.79,1.392 -1.449,0.253 -3.17,0.398 -5.131,0.402 L -20.443,4.361 C -21.378,4.345 -22.301,3.608 -22.519,2.7 l -6.132,-26.685 c -0.223,-0.909 0.387,-1.664 1.308,-1.658 l 4.377,0.008 c 0.93,-0.008 1.874,0.741 2.092,1.65 l 1.481,6.474 c 0.207,0.909 1.15,1.668 2.094,1.655 l 1.244,0 c 5.338,0 9.476,1.096 12.441,3.28 2.957,2.194 4.445,5.072 4.445,8.651 C 0.823,-2.36 0.554,-1.045 0,0 m -9.41,-8.728 c -1.307,-0.951 -3.141,-1.426 -5.499,-1.426 l -1.086,0 c -0.936,-0.012 -1.543,0.746 -1.319,1.656 l 1.306,5.665 c 0.194,0.896 1.149,1.658 2.074,1.65 l 1.43,0.008 c 1.674,-0.008 2.928,-0.288 3.79,-0.845 0.852,-0.563 1.262,-1.435 1.268,-2.598 0.005,-1.775 -0.653,-3.138 -1.964,-4.11"
         inkscape:connector-curvature="0" /></g><g
       transform="translate(189.6449,136.2748)"
       id="g68"><path
         id="path70"
         style="fill:#1476c6;fill-opacity:1;fill-rule:nonzero;stroke:none"
         d="m 0,0 c 0.247,0.915 5.843,26.445 5.843,26.445 0.221,0.91 1.162,1.659 2.098,1.659 l 3.901,0 c 0.936,0 1.519,-0.752 1.316,-1.659 L 7.323,0.006 C 7.121,-0.915 6.164,-1.659 5.233,-1.659 l -4.048,0"
         inkscape:connector-curvature="0" /></g></g><text
     xml:space="preserve"
     style="font-size:20.48718643px;font-style:normal;font-variant:normal;font-weight:bold;font-stretch:normal;line-height:125%;letter-spacing:0px;word-spacing:0px;fill:#3b3b3b;fill-opacity:1;stroke:none;font-family:Open Sans;-inkscape-font-specification:Sans Bold"
     x="148.16594"
     y="291.47144"
     id="text3716"
     sodipodi:linespacing="125%"><tspan
       sodipodi:role="line"
       id="tspan3718"
       x="148.16594"
       y="291.47144"
       style="font-style:italic;font-weight:normal;fill:#3b3b3b;fill-opacity:1;-inkscape-font-specification:Open Sans Italic">Donate with</tspan></text>
<text
     sodipodi:linespacing="111%"
     id="text3820"
     y="356.30087"
     x="202.54501"
     style="font-size:20.48718643px;font-style:normal;font-variant:normal;font-weight:bold;font-stretch:normal;line-height:111.00000143%;letter-spacing:0px;word-spacing:0px;fill:#3b3b3b;fill-opacity:1;stroke:none;font-family:Open Sans;-inkscape-font-specification:Sans Bold"
     xml:space="preserve"><tspan
       style="font-style:italic;font-weight:normal;text-align:center;line-height:111.00000143%;text-anchor:middle;fill:#3b3b3b;fill-opacity:1;-inkscape-font-specification:Open Sans Italic"
       y="356.30087"
       x="202.54501"
       id="tspan3822"
       sodipodi:role="line">To access</tspan><tspan
       style="font-style:normal;font-weight:bold;text-align:center;line-height:111.00000143%;text-anchor:middle;fill:#3b3b3b;fill-opacity:1;-inkscape-font-specification:Open Sans Bold"
       y="379.04166"
       x="202.54501"
       sodipodi:role="line"
       id="tspan3824">Prototypo</tspan></text>
</svg>