<?xml version="1.0" encoding="UTF-8" standalone="no"?>
<!-- Created with Inkscape (http://www.inkscape.org/) -->

<svg
   xmlns:dc="http://purl.org/dc/elements/1.1/"
   xmlns:cc="http://creativecommons.org/ns#"
   xmlns:rdf="http://www.w3.org/1999/02/22-rdf-syntax-ns#"
   xmlns:svg="http://www.w3.org/2000/svg"
   xmlns="http://www.w3.org/2000/svg"
   xmlns:sodipodi="http://sodipodi.sourceforge.net/DTD/sodipodi-0.dtd"
   xmlns:inkscape="http://www.inkscape.org/namespaces/inkscape"
   width="744.09448819"
   height="1052.3622047"
   id="svg2"
   version="1.1"
   inkscape:version="0.48.4 r9939"
   sodipodi:docname="paypal-buttons.svg">
  <defs
     id="defs4">
    <clipPath
       id="clipPath32-6"
       clipPathUnits="userSpaceOnUse">
      <path
         id="path34-2"
         d="m 58.5,124.333 146.621,0 0,41.627 -146.621,0 0,-41.627 z"
         inkscape:connector-curvature="0" />
    </clipPath>
    <clipPath
       id="clipPath502"
       clipPathUnits="userSpaceOnUse">
      <path
         id="path504"
         d="M 0,0 324,0 324,522 0,522 0,0 z" />
    </clipPath>
    <clipPath
       id="clipPath442"
       clipPathUnits="userSpaceOnUse">
      <path
         id="path444"
         d="M 0,0 324,0 324,522 0,522 0,0 z" />
    </clipPath>
    <clipPath
       id="clipPath422"
       clipPathUnits="userSpaceOnUse">
      <path
         id="path424"
         d="M 0,0 324,0 324,522 0,522 0,0 z" />
    </clipPath>
    <radialGradient
       id="radialGradient398"
       spreadMethod="pad"
       gradientTransform="matrix(33.479538,0,0,-33.479538,240.02631,467.05096)"
       gradientUnits="userSpaceOnUse"
       r="1"
       cy="0"
       cx="0"
       fy="0"
       fx="0">
      <stop
         id="stop400"
         offset="0"
         style="stop-opacity:1;stop-color:#a6daf5" />
      <stop
         id="stop402"
         offset="0.071106"
         style="stop-opacity:1;stop-color:#a1d8f5" />
      <stop
         id="stop404"
         offset="0.157501"
         style="stop-opacity:1;stop-color:#94d5f4" />
      <stop
         id="stop406"
         offset="0.251602"
         style="stop-opacity:1;stop-color:#80cdf2" />
      <stop
         id="stop408"
         offset="0.351395"
         style="stop-opacity:1;stop-color:#67c1ee" />
      <stop
         id="stop410"
         offset="0.454605"
         style="stop-opacity:1;stop-color:#50b0e7" />
      <stop
         id="stop412"
         offset="0.5"
         style="stop-opacity:1;stop-color:#4ca9e3" />
      <stop
         id="stop414"
         offset="1"
         style="stop-opacity:1;stop-color:#4174c2" />
    </radialGradient>
    <clipPath
       id="clipPath390"
       clipPathUnits="userSpaceOnUse">
      <path
         id="path392"
         d="m 233.717,473.184 0,-35.125 35.709,0 0,11.921 c 0.138,0.204 0.211,0.466 0.211,0.787 l 0,0 c 0,0.367 -0.073,0.595 -0.211,0.785 l 0,0 0,21.632 -35.709,0 z" />
    </clipPath>
    <radialGradient
       id="radialGradient372"
       spreadMethod="pad"
       gradientTransform="matrix(4.1514435,0,0,-4.1544189,119.27295,399.34705)"
       gradientUnits="userSpaceOnUse"
       r="1"
       cy="0"
       cx="0"
       fy="0"
       fx="0">
      <stop
         id="stop374"
         offset="0"
         style="stop-opacity:1;stop-color:#ffffff" />
      <stop
         id="stop376"
         offset="1"
         style="stop-opacity:1;stop-color:#f2541b" />
    </radialGradient>
    <clipPath
       id="clipPath364"
       clipPathUnits="userSpaceOnUse">
      <path
         id="path366"
         d="m 115.124,399.344 c 0,-2.289 1.857,-4.15 4.152,-4.15 l 0,0 c 2.292,0 4.147,1.861 4.147,4.15 l 0,0 c 0,2.294 -1.855,4.156 -4.147,4.156 l 0,0 c -2.295,0 -4.152,-1.862 -4.152,-4.156" />
    </clipPath>
    <clipPath
       id="clipPath352"
       clipPathUnits="userSpaceOnUse">
      <path
         id="path354"
         d="M 0,0 324,0 324,522 0,522 0,0 z" />
    </clipPath>
    <clipPath
       id="clipPath328"
       clipPathUnits="userSpaceOnUse">
      <path
         id="path330"
         d="M 0,0 324,0 324,522 0,522 0,0 z" />
    </clipPath>
    <clipPath
       id="clipPath300"
       clipPathUnits="userSpaceOnUse">
      <path
         id="path302"
         d="M 0,0 324,0 324,522 0,522 0,0 z" />
    </clipPath>
    <clipPath
       id="clipPath284"
       clipPathUnits="userSpaceOnUse">
      <path
         id="path286"
         d="M 0,0 324,0 324,522 0,522 0,0 z" />
    </clipPath>
    <clipPath
       id="clipPath264"
       clipPathUnits="userSpaceOnUse">
      <path
         id="path266"
         d="M 0,0 324,0 324,522 0,522 0,0 z" />
    </clipPath>
    <clipPath
       id="clipPath250"
       clipPathUnits="userSpaceOnUse">
      <path
         id="path252"
         d="M 0,0 324,0 324,522 0,522 0,0 z" />
    </clipPath>
    <clipPath
       id="clipPath204"
       clipPathUnits="userSpaceOnUse">
      <path
         id="path206"
         d="M 0,0 324,0 324,522 0,522 0,0 z" />
    </clipPath>
    <clipPath
       id="clipPath156"
       clipPathUnits="userSpaceOnUse">
      <path
         id="path158"
         d="M 0,0 324,0 324,522 0,522 0,0 z" />
    </clipPath>
    <clipPath
       id="clipPath132"
       clipPathUnits="userSpaceOnUse">
      <path
         id="path134"
         d="M 0,0 324,0 324,522 0,522 0,0 z" />
    </clipPath>
    <clipPath
       id="clipPath110"
       clipPathUnits="userSpaceOnUse">
      <path
         id="path112"
         d="M 0,0 324,0 324,522 0,522 0,0 z" />
    </clipPath>
    <clipPath
       id="clipPath90"
       clipPathUnits="userSpaceOnUse">
      <path
         id="path92"
         d="M 0,0 324,0 324,522 0,522 0,0 z" />
    </clipPath>
    <clipPath
       id="clipPath32"
       clipPathUnits="userSpaceOnUse">
      <path
         id="path34"
         d="m 58.5,124.333 146.621,0 0,41.627 -146.621,0 0,-41.627 z" />
    </clipPath>
    <clipPath
       id="clipPath20"
       clipPathUnits="userSpaceOnUse">
      <path
         id="path22"
         d="M 0,0 324,0 324,522 0,522 0,0 z" />
    </clipPath>
  </defs>
  <sodipodi:namedview
     id="base"
     pagecolor="#ffffff"
     bordercolor="#666666"
     borderopacity="1.0"
     inkscape:pageopacity="0.0"
     inkscape:pageshadow="2"
     inkscape:zoom="0.7"
     inkscape:cx="25.531611"
     inkscape:cy="406.97101"
     inkscape:document-units="px"
     inkscape:current-layer="layer1"
     showgrid="false"
     inkscape:window-width="1121"
     inkscape:window-height="879"
     inkscape:window-x="645"
     inkscape:window-y="222"
     inkscape:window-maximized="0" />
  <metadata
     id="metadata7">
    <rdf:RDF>
      <cc:Work
         rdf:about="">
        <dc:format>image/svg+xml</dc:format>
        <dc:type
           rdf:resource="http://purl.org/dc/dcmitype/StillImage" />
        <dc:title></dc:title>
      </cc:Work>
    </rdf:RDF>
  </metadata>
  <g
     inkscape:label="Layer 1"
     inkscape:groupmode="layer"
     id="layer1">
    <g
       id="subscription"
       transform="matrix(1.2,0,0,1.2,18.953353,-171.33283)">
      <rect
         ry="4.1154537"
         rx="3.3654685"
         y="574.6908"
         x="5.2332349"
         height="59.116257"
         width="150"
         id="rect4105"
         style="fill:#f5e462;fill-opacity:1;stroke:none" />
      <g
         id="g3807"
         transform="matrix(0.48108878,0,0,-0.48108878,-8.588995,687.15148)">
        <g
           id="g44"
           transform="translate(132.5365,157.204)">
          <path
             inkscape:connector-curvature="0"
             d="m 0,0 c -0.934,0 -2.159,-0.756 -2.739,-1.67 0,0 -6.061,-10.43 -6.674,-11.501 -0.334,-0.576 -0.672,-0.21 -0.728,0.004 -0.045,0.26 -1.936,11.52 -1.936,11.52 -0.213,0.922 -1.175,1.712 -2.379,1.71 l -3.896,-0.008 c -0.938,0 -1.524,-0.751 -1.315,-1.66 0,0 2.976,-16.693 3.557,-20.662 0.291,-2.195 -0.029,-2.584 -0.029,-2.584 l -3.674,-6.359 c -0.565,-0.912 -0.257,-1.661 0.678,-1.661 l 4.514,0.002 c 0.935,0 2.173,0.747 2.729,1.662 L 5.103,-2.488 c 0,0 1.662,2.509 0.129,2.488"
             style="fill:#104076;fill-opacity:1;fill-rule:nonzero;stroke:none"
             id="path46" />
        </g>
        <path
           inkscape:connector-curvature="0"
           transform="translate(87.3122,160.2283)"
           d="m 0,0 c -0.542,1.058 -1.354,1.916 -2.391,2.564 -1.075,0.664 -2.326,1.121 -3.784,1.397 -1.466,0.263 -3.18,0.392 -5.145,0.409 l -9.1,-0.005 c -0.947,-0.012 -1.874,-0.754 -2.092,-1.663 l -6.089,-26.446 c -0.211,-0.911 0.379,-1.666 1.321,-1.666 l 4.36,0 c 0.942,0 1.877,0.736 2.088,1.666 l 1.456,6.243 c 0.2,0.905 1.132,1.654 2.077,1.654 l 1.246,0 c 5.332,0.006 9.468,1.095 12.44,3.278 2.968,2.179 4.452,5.068 4.445,8.639 C 0.839,-2.36 0.567,-1.048 0,0 m -9.413,-8.715 c -1.315,-0.961 -3.136,-1.443 -5.502,-1.443 l -1.068,0 c -0.943,0 -1.537,0.746 -1.329,1.664 L -16,-2.839 c 0.199,0.911 1.141,1.668 2.082,1.658 l 1.426,0.01 c 1.668,0 2.934,-0.285 3.789,-0.853 0.842,-0.552 1.27,-1.423 1.255,-2.596 0.024,-1.765 -0.644,-3.132 -1.965,-4.095"
           style="fill:#104076;fill-opacity:1;fill-rule:nonzero;stroke:none"
           id="path50" />
        <g
           id="g52"
           transform="translate(100.6118,140.0441)">
          <path
             inkscape:connector-curvature="0"
             d="m 0,0 c -0.54,-0.342 -1.111,-0.633 -1.711,-0.883 -0.805,-0.32 -1.571,-0.494 -2.275,-0.494 -1.081,0 -1.915,0.155 -2.479,0.481 -0.563,0.313 -0.86,0.849 -0.851,1.627 0,0.888 0.208,1.584 0.634,2.127 0.43,0.524 1.067,0.943 1.859,1.257 0.788,0.268 1.759,0.486 2.874,0.644 0.995,0.125 2.962,0.351 3.212,0.354 0.25,10e-4 0.418,0.141 0.306,-0.53 C 1.52,4.293 0.953,1.961 0.691,0.905 0.614,0.583 0.191,0.121 0,0 m 7.715,16.374 c -1.656,0.922 -4.246,1.389 -7.787,1.389 -1.754,0 -3.513,-0.139 -5.281,-0.414 -1.299,-0.197 -1.43,-0.23 -2.236,-0.406 -1.658,-0.362 -1.914,-2.02 -1.914,-2.02 l -0.532,-2.191 c -0.301,-1.4 0.497,-1.342 0.851,-1.233 0.722,0.219 1.117,0.435 2.594,0.771 1.409,0.318 2.902,0.558 4.09,0.549 1.746,0 3.072,-0.191 3.953,-0.559 C 2.337,11.876 2.772,11.219 2.772,10.282 2.777,10.058 2.782,9.848 2.703,9.666 2.63,9.493 2.488,9.328 2.071,9.273 -0.415,9.122 -2.203,8.895 -4.358,8.581 -6.482,8.283 -8.339,7.77 -9.893,7.061 -11.55,6.326 -12.787,5.341 -13.64,4.097 c -0.835,-1.252 -1.252,-2.767 -1.253,-4.552 0,-1.685 0.607,-3.062 1.778,-4.13 1.189,-1.056 2.731,-1.576 4.599,-1.576 1.168,0.007 2.08,0.094 2.737,0.257 0.647,0.163 1.355,0.394 2.099,0.718 0.558,0.234 1.159,0.571 1.795,0.994 0.635,0.423 1.079,0.725 1.646,1.095 l 0.017,-0.036 -0.159,-0.7 c -0.001,-0.008 -0.011,-0.01 -0.011,-0.021 l 0.008,-0.01 c -0.182,-0.846 0.325,-1.548 1.162,-1.63 l 0.01,-0.016 0.074,0 0.003,-0.005 c 0.557,0 2.464,0.003 3.354,0.005 l 0.623,0 c 0.041,0 0.047,0.014 0.06,0.022 0.857,0.11 1.673,0.804 1.87,1.634 L 9.955,9.892 c 0.072,0.322 0.13,0.695 0.163,1.125 0.042,0.435 0.089,0.791 0.076,1.048 0.008,1.947 -0.829,3.385 -2.479,4.309"
             style="fill:#104076;fill-opacity:1;fill-rule:nonzero;stroke:none"
             id="path54" />
        </g>
        <g
           id="g56"
           transform="translate(178.741,140.123)">
          <path
             inkscape:connector-curvature="0"
             d="m 0,0 c -0.542,-0.342 -1.112,-0.63 -1.711,-0.881 -0.804,-0.323 -1.567,-0.494 -2.274,-0.494 -1.086,0 -1.916,0.153 -2.478,0.481 -0.566,0.311 -0.863,0.852 -0.852,1.625 0,0.894 0.205,1.585 0.633,2.129 0.428,0.522 1.07,0.942 1.859,1.256 0.788,0.267 1.755,0.487 2.875,0.644 0.994,0.125 2.96,0.353 3.21,0.354 C 1.514,5.117 1.68,5.255 1.569,4.585 1.52,4.294 0.952,1.964 0.691,0.904 0.615,0.589 0.192,0.126 0,0 m 7.715,16.375 c -1.656,0.924 -4.247,1.391 -7.788,1.391 -1.754,0 -3.515,-0.141 -5.282,-0.414 -1.295,-0.2 -1.43,-0.233 -2.234,-0.408 -1.658,-0.361 -1.913,-2.02 -1.913,-2.02 l -0.532,-2.19 c -0.304,-1.399 0.495,-1.341 0.85,-1.232 0.722,0.218 1.117,0.433 2.592,0.769 1.411,0.321 2.904,0.559 4.092,0.55 1.746,0 3.071,-0.191 3.953,-0.559 0.884,-0.385 1.32,-1.042 1.32,-1.977 C 2.776,10.062 2.784,9.849 2.703,9.667 2.629,9.495 2.489,9.329 2.074,9.274 -0.418,9.125 -2.205,8.898 -4.358,8.584 -6.479,8.285 -8.34,7.772 -9.891,7.063 c -1.656,-0.734 -2.897,-1.717 -3.752,-2.964 -0.83,-1.251 -1.249,-2.766 -1.25,-4.551 0,-1.688 0.607,-3.062 1.778,-4.133 1.189,-1.051 2.732,-1.574 4.601,-1.574 1.167,0.008 2.079,0.092 2.734,0.255 0.647,0.163 1.356,0.397 2.103,0.721 0.557,0.231 1.156,0.57 1.792,0.993 0.637,0.426 1.078,0.726 1.643,1.093 l 0.021,-0.031 -0.16,-0.705 c 0,-0.005 -0.011,-0.01 -0.011,-0.015 l 0.006,-0.014 C -0.568,-4.705 -0.06,-5.41 0.778,-5.494 l 0.01,-0.013 0.074,0 0.003,-0.003 c 0.557,0 2.463,0 3.354,0.003 l 0.623,0 c 0.039,0 0.045,0.013 0.06,0.021 0.857,0.105 1.678,0.802 1.87,1.638 L 9.955,9.893 c 0.073,0.323 0.131,0.696 0.165,1.126 0.04,0.434 0.087,0.791 0.071,1.049 0.011,1.945 -0.825,3.383 -2.476,4.307"
             style="fill:#1476c6;fill-opacity:1;fill-rule:nonzero;stroke:none"
             id="path58" />
        </g>
        <g
           id="g60"
           transform="translate(165.4243,160.2334)">
          <path
             inkscape:connector-curvature="0"
             d="m 0,0 c -0.544,1.057 -1.364,1.907 -2.4,2.571 -1.064,0.661 -2.329,1.121 -3.79,1.392 -1.449,0.253 -3.17,0.398 -5.131,0.402 L -20.443,4.361 C -21.378,4.345 -22.301,3.608 -22.519,2.7 l -6.132,-26.685 c -0.223,-0.909 0.387,-1.664 1.308,-1.658 l 4.377,0.008 c 0.93,-0.008 1.874,0.741 2.092,1.65 l 1.481,6.474 c 0.207,0.909 1.15,1.668 2.094,1.655 l 1.244,0 c 5.338,0 9.476,1.096 12.441,3.28 2.957,2.194 4.445,5.072 4.445,8.651 C 0.823,-2.36 0.554,-1.045 0,0 m -9.41,-8.728 c -1.307,-0.951 -3.141,-1.426 -5.499,-1.426 l -1.086,0 c -0.936,-0.012 -1.543,0.746 -1.319,1.656 l 1.306,5.665 c 0.194,0.896 1.149,1.658 2.074,1.65 l 1.43,0.008 c 1.674,-0.008 2.928,-0.288 3.79,-0.845 0.852,-0.563 1.262,-1.435 1.268,-2.598 0.005,-1.775 -0.653,-3.138 -1.964,-4.11"
             style="fill:#1476c6;fill-opacity:1;fill-rule:nonzero;stroke:none"
             id="path62" />
        </g>
        <g
           id="g68"
           transform="translate(189.6449,136.2748)">
          <path
             inkscape:connector-curvature="0"
             d="m 0,0 c 0.247,0.915 5.843,26.445 5.843,26.445 0.221,0.91 1.162,1.659 2.098,1.659 l 3.901,0 c 0.936,0 1.519,-0.752 1.316,-1.659 L 7.323,0.006 C 7.121,-0.915 6.164,-1.659 5.233,-1.659 l -4.048,0"
             style="fill:#1476c6;fill-opacity:1;fill-rule:nonzero;stroke:none"
             id="path70" />
        </g>
      </g>
      <text
         sodipodi:linespacing="165%"
         id="text3716"
         y="595.83142"
         x="80.233238"
         style="font-size:15.83971405px;font-style:italic;font-variant:normal;font-weight:normal;font-stretch:normal;line-height:164.99999762%;letter-spacing:0px;word-spacing:0px;fill:#3b3b3b;fill-opacity:1;stroke:none;font-family:Open Sans;-inkscape-font-specification:Open Sans Italic"
         xml:space="preserve"><tspan
           style="font-style:italic;font-weight:normal;text-align:center;line-height:164.99999762%;text-anchor:middle;fill:#3b3b3b;fill-opacity:1;-inkscape-font-specification:Open Sans Italic"
           y="595.83142"
           x="80.233238"
           id="tspan3718"
           sodipodi:role="line">Donate <tspan
   id="tspan4088"
   style="font-style:normal;font-weight:bold;text-align:center;line-height:164.99999762%;text-anchor:middle;-inkscape-font-specification:Open Sans Bold">$19</tspan></tspan><tspan
           id="tspan4100"
           style="font-style:italic;font-weight:normal;text-align:center;line-height:164.99999762%;text-anchor:middle;fill:#3b3b3b;fill-opacity:1;-inkscape-font-specification:Open Sans Italic"
           y="621.96692"
           x="82.290543"
           sodipodi:role="line">                  or         </tspan></text>
      <path
         style="fill:#104076;fill-opacity:1"
         inkscape:connector-curvature="0"
         id="rect10401"
         d="m 114.76419,607.30292 c -0.81272,0 -1.46685,0.65442 -1.46685,1.46686 v 14.66884 c 0,0.81273 0.65413,1.46715 1.46685,1.46715 h 24.93684 c 0.81273,0 1.46741,-0.65442 1.46741,-1.46687 v -14.66912 c 0,-0.81244 -0.65468,-1.46686 -1.46741,-1.46686 h -24.93684 z m -0.73356,2.93372 h 26.40396 v 2.93371 h -26.40396 v -2.93371 z m 0.73356,8.80114 h 4.40085 v 2.93371 h -4.40085 v -2.93371 z m 13.20199,1.46713 h 10.26827 v 1.46686 h -10.26827 v -1.46686 z" />
    </g>
    <g
       id="donation"
       transform="matrix(1.2,0,0,1.2,223.52478,-435.61854)">
      <rect
         style="fill:#f5e462;fill-opacity:1;stroke:none"
         id="rect4282"
         width="150"
         height="59.116257"
         x="25.233234"
         y="797.54791"
         rx="3.3654683"
         ry="4.1154537" />
      <g
         transform="matrix(0.48108878,0,0,-0.48108878,11.411005,910.00862)"
         id="g4284">
        <g
           transform="translate(132.5365,157.204)"
           id="g4286">
          <path
             id="path4288"
             style="fill:#104076;fill-opacity:1;fill-rule:nonzero;stroke:none"
             d="m 0,0 c -0.934,0 -2.159,-0.756 -2.739,-1.67 0,0 -6.061,-10.43 -6.674,-11.501 -0.334,-0.576 -0.672,-0.21 -0.728,0.004 -0.045,0.26 -1.936,11.52 -1.936,11.52 -0.213,0.922 -1.175,1.712 -2.379,1.71 l -3.896,-0.008 c -0.938,0 -1.524,-0.751 -1.315,-1.66 0,0 2.976,-16.693 3.557,-20.662 0.291,-2.195 -0.029,-2.584 -0.029,-2.584 l -3.674,-6.359 c -0.565,-0.912 -0.257,-1.661 0.678,-1.661 l 4.514,0.002 c 0.935,0 2.173,0.747 2.729,1.662 L 5.103,-2.488 c 0,0 1.662,2.509 0.129,2.488"
             inkscape:connector-curvature="0" />
        </g>
        <path
           id="path4290"
           style="fill:#104076;fill-opacity:1;fill-rule:nonzero;stroke:none"
           d="m 0,0 c -0.542,1.058 -1.354,1.916 -2.391,2.564 -1.075,0.664 -2.326,1.121 -3.784,1.397 -1.466,0.263 -3.18,0.392 -5.145,0.409 l -9.1,-0.005 c -0.947,-0.012 -1.874,-0.754 -2.092,-1.663 l -6.089,-26.446 c -0.211,-0.911 0.379,-1.666 1.321,-1.666 l 4.36,0 c 0.942,0 1.877,0.736 2.088,1.666 l 1.456,6.243 c 0.2,0.905 1.132,1.654 2.077,1.654 l 1.246,0 c 5.332,0.006 9.468,1.095 12.44,3.278 2.968,2.179 4.452,5.068 4.445,8.639 C 0.839,-2.36 0.567,-1.048 0,0 m -9.413,-8.715 c -1.315,-0.961 -3.136,-1.443 -5.502,-1.443 l -1.068,0 c -0.943,0 -1.537,0.746 -1.329,1.664 L -16,-2.839 c 0.199,0.911 1.141,1.668 2.082,1.658 l 1.426,0.01 c 1.668,0 2.934,-0.285 3.789,-0.853 0.842,-0.552 1.27,-1.423 1.255,-2.596 0.024,-1.765 -0.644,-3.132 -1.965,-4.095"
           transform="translate(87.3122,160.2283)"
           inkscape:connector-curvature="0" />
        <g
           transform="translate(100.6118,140.0441)"
           id="g4292">
          <path
             id="path4294"
             style="fill:#104076;fill-opacity:1;fill-rule:nonzero;stroke:none"
             d="m 0,0 c -0.54,-0.342 -1.111,-0.633 -1.711,-0.883 -0.805,-0.32 -1.571,-0.494 -2.275,-0.494 -1.081,0 -1.915,0.155 -2.479,0.481 -0.563,0.313 -0.86,0.849 -0.851,1.627 0,0.888 0.208,1.584 0.634,2.127 0.43,0.524 1.067,0.943 1.859,1.257 0.788,0.268 1.759,0.486 2.874,0.644 0.995,0.125 2.962,0.351 3.212,0.354 0.25,10e-4 0.418,0.141 0.306,-0.53 C 1.52,4.293 0.953,1.961 0.691,0.905 0.614,0.583 0.191,0.121 0,0 m 7.715,16.374 c -1.656,0.922 -4.246,1.389 -7.787,1.389 -1.754,0 -3.513,-0.139 -5.281,-0.414 -1.299,-0.197 -1.43,-0.23 -2.236,-0.406 -1.658,-0.362 -1.914,-2.02 -1.914,-2.02 l -0.532,-2.191 c -0.301,-1.4 0.497,-1.342 0.851,-1.233 0.722,0.219 1.117,0.435 2.594,0.771 1.409,0.318 2.902,0.558 4.09,0.549 1.746,0 3.072,-0.191 3.953,-0.559 C 2.337,11.876 2.772,11.219 2.772,10.282 2.777,10.058 2.782,9.848 2.703,9.666 2.63,9.493 2.488,9.328 2.071,9.273 -0.415,9.122 -2.203,8.895 -4.358,8.581 -6.482,8.283 -8.339,7.77 -9.893,7.061 -11.55,6.326 -12.787,5.341 -13.64,4.097 c -0.835,-1.252 -1.252,-2.767 -1.253,-4.552 0,-1.685 0.607,-3.062 1.778,-4.13 1.189,-1.056 2.731,-1.576 4.599,-1.576 1.168,0.007 2.08,0.094 2.737,0.257 0.647,0.163 1.355,0.394 2.099,0.718 0.558,0.234 1.159,0.571 1.795,0.994 0.635,0.423 1.079,0.725 1.646,1.095 l 0.017,-0.036 -0.159,-0.7 c -0.001,-0.008 -0.011,-0.01 -0.011,-0.021 l 0.008,-0.01 c -0.182,-0.846 0.325,-1.548 1.162,-1.63 l 0.01,-0.016 0.074,0 0.003,-0.005 c 0.557,0 2.464,0.003 3.354,0.005 l 0.623,0 c 0.041,0 0.047,0.014 0.06,0.022 0.857,0.11 1.673,0.804 1.87,1.634 L 9.955,9.892 c 0.072,0.322 0.13,0.695 0.163,1.125 0.042,0.435 0.089,0.791 0.076,1.048 0.008,1.947 -0.829,3.385 -2.479,4.309"
             inkscape:connector-curvature="0" />
        </g>
        <g
           transform="translate(178.741,140.123)"
           id="g4296">
          <path
             id="path4298"
             style="fill:#1476c6;fill-opacity:1;fill-rule:nonzero;stroke:none"
             d="m 0,0 c -0.542,-0.342 -1.112,-0.63 -1.711,-0.881 -0.804,-0.323 -1.567,-0.494 -2.274,-0.494 -1.086,0 -1.916,0.153 -2.478,0.481 -0.566,0.311 -0.863,0.852 -0.852,1.625 0,0.894 0.205,1.585 0.633,2.129 0.428,0.522 1.07,0.942 1.859,1.256 0.788,0.267 1.755,0.487 2.875,0.644 0.994,0.125 2.96,0.353 3.21,0.354 C 1.514,5.117 1.68,5.255 1.569,4.585 1.52,4.294 0.952,1.964 0.691,0.904 0.615,0.589 0.192,0.126 0,0 m 7.715,16.375 c -1.656,0.924 -4.247,1.391 -7.788,1.391 -1.754,0 -3.515,-0.141 -5.282,-0.414 -1.295,-0.2 -1.43,-0.233 -2.234,-0.408 -1.658,-0.361 -1.913,-2.02 -1.913,-2.02 l -0.532,-2.19 c -0.304,-1.399 0.495,-1.341 0.85,-1.232 0.722,0.218 1.117,0.433 2.592,0.769 1.411,0.321 2.904,0.559 4.092,0.55 1.746,0 3.071,-0.191 3.953,-0.559 0.884,-0.385 1.32,-1.042 1.32,-1.977 C 2.776,10.062 2.784,9.849 2.703,9.667 2.629,9.495 2.489,9.329 2.074,9.274 -0.418,9.125 -2.205,8.898 -4.358,8.584 -6.479,8.285 -8.34,7.772 -9.891,7.063 c -1.656,-0.734 -2.897,-1.717 -3.752,-2.964 -0.83,-1.251 -1.249,-2.766 -1.25,-4.551 0,-1.688 0.607,-3.062 1.778,-4.133 1.189,-1.051 2.732,-1.574 4.601,-1.574 1.167,0.008 2.079,0.092 2.734,0.255 0.647,0.163 1.356,0.397 2.103,0.721 0.557,0.231 1.156,0.57 1.792,0.993 0.637,0.426 1.078,0.726 1.643,1.093 l 0.021,-0.031 -0.16,-0.705 c 0,-0.005 -0.011,-0.01 -0.011,-0.015 l 0.006,-0.014 C -0.568,-4.705 -0.06,-5.41 0.778,-5.494 l 0.01,-0.013 0.074,0 0.003,-0.003 c 0.557,0 2.463,0 3.354,0.003 l 0.623,0 c 0.039,0 0.045,0.013 0.06,0.021 0.857,0.105 1.678,0.802 1.87,1.638 L 9.955,9.893 c 0.073,0.323 0.131,0.696 0.165,1.126 0.04,0.434 0.087,0.791 0.071,1.049 0.011,1.945 -0.825,3.383 -2.476,4.307"
             inkscape:connector-curvature="0" />
        </g>
        <g
           transform="translate(165.4243,160.2334)"
           id="g4300">
          <path
             id="path4302"
             style="fill:#1476c6;fill-opacity:1;fill-rule:nonzero;stroke:none"
             d="m 0,0 c -0.544,1.057 -1.364,1.907 -2.4,2.571 -1.064,0.661 -2.329,1.121 -3.79,1.392 -1.449,0.253 -3.17,0.398 -5.131,0.402 L -20.443,4.361 C -21.378,4.345 -22.301,3.608 -22.519,2.7 l -6.132,-26.685 c -0.223,-0.909 0.387,-1.664 1.308,-1.658 l 4.377,0.008 c 0.93,-0.008 1.874,0.741 2.092,1.65 l 1.481,6.474 c 0.207,0.909 1.15,1.668 2.094,1.655 l 1.244,0 c 5.338,0 9.476,1.096 12.441,3.28 2.957,2.194 4.445,5.072 4.445,8.651 C 0.823,-2.36 0.554,-1.045 0,0 m -9.41,-8.728 c -1.307,-0.951 -3.141,-1.426 -5.499,-1.426 l -1.086,0 c -0.936,-0.012 -1.543,0.746 -1.319,1.656 l 1.306,5.665 c 0.194,0.896 1.149,1.658 2.074,1.65 l 1.43,0.008 c 1.674,-0.008 2.928,-0.288 3.79,-0.845 0.852,-0.563 1.262,-1.435 1.268,-2.598 0.005,-1.775 -0.653,-3.138 -1.964,-4.11"
             inkscape:connector-curvature="0" />
        </g>
        <g
           transform="translate(189.6449,136.2748)"
           id="g4304">
          <path
             id="path4306"
             style="fill:#1476c6;fill-opacity:1;fill-rule:nonzero;stroke:none"
             d="m 0,0 c 0.247,0.915 5.843,26.445 5.843,26.445 0.221,0.91 1.162,1.659 2.098,1.659 l 3.901,0 c 0.936,0 1.519,-0.752 1.316,-1.659 L 7.323,0.006 C 7.121,-0.915 6.164,-1.659 5.233,-1.659 l -4.048,0"
             inkscape:connector-curvature="0" />
        </g>
      </g>
      <text
         xml:space="preserve"
         style="font-size:15.83971405px;font-style:italic;font-variant:normal;font-weight:normal;font-stretch:normal;line-height:164.99999762%;letter-spacing:0px;word-spacing:0px;fill:#3b3b3b;fill-opacity:1;stroke:none;font-family:Open Sans;-inkscape-font-specification:Open Sans Italic"
         x="100.23324"
         y="818.6886"
         id="text4308"
         sodipodi:linespacing="165%"><tspan
           sodipodi:role="line"
           id="tspan4310"
           x="100.23324"
           y="818.6886"
           style="font-style:italic;font-weight:normal;text-align:center;line-height:164.99999762%;text-anchor:middle;fill:#3b3b3b;fill-opacity:1;-inkscape-font-specification:Open Sans Italic">Custom donation</tspan><tspan
           sodipodi:role="line"
           x="102.29054"
           y="844.8241"
           style="font-style:italic;font-weight:normal;text-align:center;line-height:164.99999762%;text-anchor:middle;fill:#3b3b3b;fill-opacity:1;-inkscape-font-specification:Open Sans Italic"
           id="tspan4314">                  or         </tspan></text>
      <path
         d="m 134.76419,830.16006 c -0.81272,0 -1.46685,0.65442 -1.46685,1.46686 v 14.66884 c 0,0.81273 0.65413,1.46715 1.46685,1.46715 h 24.93684 c 0.81273,0 1.46741,-0.65442 1.46741,-1.46687 v -14.66912 c 0,-0.81244 -0.65468,-1.46686 -1.46741,-1.46686 h -24.93684 z m -0.73356,2.93372 h 26.40396 v 2.93371 h -26.40396 v -2.93371 z m 0.73356,8.80114 h 4.40085 v 2.93371 h -4.40085 v -2.93371 z m 13.20199,1.46713 h 10.26827 v 1.46686 h -10.26827 v -1.46686 z"
         id="path4316"
         inkscape:connector-curvature="0"
         style="fill:#104076;fill-opacity:1" />
    </g>
  </g>
</svg>
