<?xml version="1.0" encoding="utf-8"?>
<!-- Generator: Adobe Illustrator 16.0.0, SVG Export Plug-In . SVG Version: 6.00 Build 0)  -->
<!DOCTYPE svg PUBLIC "-//W3C//DTD SVG 1.1//EN" "http://www.w3.org/Graphics/SVG/1.1/DTD/svg11.dtd">
<svg version="1.1" id="Calque_1" xmlns="http://www.w3.org/2000/svg" xmlns:xlink="http://www.w3.org/1999/xlink" x="0px" y="0px"
	 width="82.7px" height="61.957px" viewBox="0 0 82.7 61.957" enable-background="new 0 0 82.7 61.957" xml:space="preserve">
<path id="Twitter__x28_alt_x29__1_" fill="#FFFFFF" d="M72.991,23.875c4.699-1.005,7.643-3.584,8.504-6.674
	c-1.578,1.274-6.748,3.111-9.828,2.398c-0.234-0.671-0.479-1.306-0.713-1.879C67.647,9.79,59.125,4.161,51.198,6
	c0.616-0.346,1.244-0.676,1.873-0.98c0.842-0.431,5.92-1.947,4.865-3.672C57.041-0.172,51.069,3.476,49.922,4
	c1.5-0.797,3.973-2.153,4.016-4c-2.368,0.643-4.59,2.091-6.205,3.987C48.3,3.19,48.69,2.26,48.676,1.311
	c-5.904,4.947-8.59,13.723-10.592,22.159c-2.689-2.007-5.042-3.555-7.073-4.321c-5.699-2.168-12.457-4.324-22.941-6.742
	c0.122,3.349,2.636,7.498,8.615,9.698c-1.235-0.005-3.406,0.646-5.126,1.3c1.215,3.697,3.978,6.515,10.564,7.198
	c-2.895,0.57-4.319,1.432-5.501,3.041c1.671,2.464,5.32,5.146,11.076,3.754c-6.129,3.638-1.612,8.321,3.569,6.865
	C23.46,54.736,9.167,55.893,0,49.164c25.058,26.268,69.823,8.411,73.102-20.438c5.174-0.625,7.976-2.853,9.598-5.12
	C79.788,24.496,75.403,24.533,72.991,23.875z"/>
</svg>
